<?xml version="1.0" standalone="no"?>
<!DOCTYPE svg PUBLIC "-//W3C//DTD SVG 20010904//EN"
 "http://www.w3.org/TR/2001/REC-SVG-20010904/DTD/svg10.dtd">
<svg version="1.0" xmlns="http://www.w3.org/2000/svg"
 width="1236.000000pt" height="1236.000000pt" viewBox="0 0 1236.000000 1236.000000"
 preserveAspectRatio="xMidYMid meet">
<metadata>
Created by potrace 1.11, written by Peter Selinger 2001-2013
</metadata>
<g transform="translate(0.000000,1236.000000) scale(0.100000,-0.100000)"
fill="#000000" stroke="none">
<path d="M4276 10435 c-10 -8 -24 -11 -30 -8 -6 4 -4 -2 4 -12 14 -17 14 -18
-9 -6 -15 8 -21 9 -17 2 4 -6 0 -14 -8 -17 -9 -3 -16 -13 -16 -21 0 -8 -4 -12
-9 -9 -17 11 -40 -5 -36 -26 4 -16 2 -18 -10 -8 -12 10 -15 9 -15 -5 0 -11 -5
-15 -14 -12 -10 4 -13 1 -10 -7 6 -16 -21 -40 -36 -31 -6 4 -9 1 -8 -7 2 -8
-6 -13 -19 -12 -19 0 -20 -2 -11 -19 6 -13 6 -17 0 -13 -13 8 -42 -3 -42 -16
0 -5 5 -6 12 -2 7 5 8 3 4 -5 -5 -7 -15 -10 -23 -7 -10 4 -13 2 -10 -8 7 -18
-33 -54 -56 -51 -9 2 -15 -1 -11 -6 3 -5 0 -9 -6 -9 -6 0 -8 -5 -4 -12 6 -9 3
-9 -9 0 -14 12 -16 11 -12 -7 3 -18 1 -19 -14 -12 -14 8 -17 6 -16 -12 3 -31
-4 -40 -21 -26 -14 11 -20 1 -15 -25 1 -5 -6 -3 -15 5 -16 13 -17 12 -12 -9 4
-12 3 -20 -2 -17 -4 2 -15 -4 -25 -15 -9 -10 -22 -16 -29 -14 -7 3 -19 -3 -27
-13 -12 -16 -12 -17 2 -6 13 10 16 10 16 -2 0 -7 -3 -14 -6 -13 -21 2 -31 -4
-25 -14 5 -7 3 -8 -6 -3 -10 6 -12 4 -6 -10 5 -15 4 -16 -9 -5 -10 8 -15 9
-15 1 0 -6 -6 -11 -13 -11 -7 0 -17 -10 -22 -22 -6 -13 -17 -23 -27 -23 -26 0
-60 -36 -48 -51 8 -9 4 -12 -18 -10 -25 2 -28 -1 -24 -19 5 -18 4 -19 -12 -6
-9 8 -16 10 -15 5 1 -5 1 -15 0 -23 -1 -11 -4 -11 -18 0 -10 8 -14 9 -10 2 4
-6 2 -15 -4 -18 -5 -4 -8 -13 -5 -21 3 -8 0 -11 -9 -7 -8 3 -12 10 -8 16 3 6
1 7 -5 3 -6 -3 -9 -15 -7 -26 3 -13 -1 -17 -11 -13 -9 3 -14 -1 -14 -12 0 -14
-3 -15 -14 -6 -16 14 -25 4 -21 -22 3 -15 1 -16 -13 -5 -12 10 -14 10 -8 1 4
-9 1 -13 -10 -13 -14 0 -15 -2 -3 -17 8 -9 9 -14 3 -10 -7 4 -17 0 -24 -8 -6
-7 -18 -11 -26 -8 -11 4 -15 0 -12 -13 2 -14 -3 -19 -19 -18 -12 1 -32 -10
-45 -25 l-23 -26 25 20 c15 12 20 14 12 4 -6 -9 -9 -18 -6 -22 3 -3 -6 -4 -20
-3 -27 3 -36 -8 -13 -17 7 -3 4 -6 -6 -6 -10 -1 -16 -5 -12 -10 3 -5 1 -12 -5
-16 -5 -3 -10 -1 -10 6 0 8 -4 8 -15 -1 -8 -7 -15 -19 -15 -26 0 -8 -5 -14
-11 -14 -5 0 -7 5 -3 12 4 7 3 8 -5 4 -6 -4 -10 -10 -7 -14 2 -4 -5 -16 -16
-27 -19 -20 -19 -20 -13 0 6 18 6 18 -5 2 -6 -10 -16 -14 -23 -10 -8 4 -7 1 1
-9 10 -13 10 -18 1 -24 -8 -5 -10 -3 -5 7 4 8 1 6 -7 -3 -8 -10 -17 -15 -20
-11 -4 3 -7 1 -7 -6 0 -7 -4 -10 -9 -7 -5 3 -11 -1 -15 -9 -3 -8 -13 -15 -22
-15 -14 0 -15 -2 -3 -17 13 -15 12 -15 -7 -5 -19 10 -21 9 -18 -13 2 -26 -11
-34 -19 -12 -3 7 -6 5 -6 -5 -1 -11 -6 -15 -16 -12 -9 4 -15 0 -15 -9 0 -9 -5
-19 -12 -23 -6 -4 -8 -3 -4 4 3 6 2 13 -3 16 -5 4 -8 -5 -6 -19 1 -14 -2 -25
-6 -25 -5 0 -9 5 -9 11 0 5 -5 7 -10 4 -6 -4 -8 -11 -5 -16 5 -8 -7 -13 -26
-11 -3 1 -6 -6 -6 -13 0 -12 3 -12 16 -2 14 11 14 10 2 -6 -7 -9 -19 -16 -25
-15 -14 3 -56 -24 -56 -36 0 -5 11 1 26 15 15 14 23 18 19 8 -8 -21 -50 -43
-64 -35 -7 5 -8 1 -4 -10 4 -12 3 -15 -5 -10 -11 6 -16 -5 -13 -26 0 -4 -7 -4
-16 -1 -10 4 -14 2 -9 -5 4 -7 -1 -10 -14 -7 -18 3 -19 1 -8 -18 10 -19 9 -20
-4 -9 -13 10 -17 10 -21 -2 -4 -9 -15 -13 -29 -11 -22 4 -22 4 -4 -10 19 -15
19 -15 -1 -15 -11 0 -27 -8 -34 -17 -12 -14 -12 -16 0 -8 10 5 12 4 7 -4 -4
-6 -12 -9 -17 -6 -5 4 -9 0 -9 -8 0 -8 -7 -20 -15 -27 -10 -9 -15 -9 -15 -1 0
6 -4 11 -9 11 -6 0 -8 -9 -6 -20 2 -11 0 -18 -5 -15 -5 3 -20 -5 -32 -17 -13
-13 -27 -22 -31 -20 -5 1 -11 -7 -14 -18 -3 -11 -9 -17 -14 -14 -5 3 -9 -2 -9
-12 0 -14 -2 -15 -17 -3 -11 10 -14 10 -9 2 4 -7 2 -13 -3 -13 -6 0 -11 -7
-11 -16 0 -9 -6 -14 -12 -11 -7 2 -19 -3 -26 -12 -8 -10 -11 -10 -6 -2 4 9 3
12 -4 7 -6 -4 -9 -13 -6 -20 3 -7 -3 -19 -13 -27 -16 -12 -17 -12 -6 2 10 13
10 16 -2 16 -7 0 -14 -3 -13 -6 2 -20 -4 -31 -13 -25 -8 4 -9 0 -4 -15 5 -16
3 -20 -10 -15 -10 4 -15 2 -13 -7 2 -9 -4 -13 -16 -11 -10 2 -15 -1 -12 -6 3
-5 -8 -12 -25 -16 -26 -5 -30 -10 -26 -27 5 -17 3 -18 -11 -7 -12 10 -14 10
-8 1 7 -12 -5 -18 -27 -14 -4 1 -2 -9 4 -21 11 -21 11 -22 -5 -9 -9 8 -16 10
-15 5 1 -5 1 -16 0 -24 -1 -13 -2 -13 -11 0 -6 9 -10 10 -10 3 0 -6 -9 -15
-20 -18 -11 -3 -20 -12 -20 -19 0 -8 -7 -19 -15 -26 -10 -9 -15 -9 -15 -1 0 6
5 11 10 11 6 0 10 5 10 12 0 6 -8 4 -19 -6 -11 -10 -17 -24 -15 -30 3 -7 -6
-20 -20 -30 -30 -19 -40 -21 -30 -4 5 7 3 8 -5 4 -7 -5 -10 -14 -7 -21 3 -9
-2 -12 -14 -10 -11 2 -19 1 -19 -3 3 -19 -2 -32 -12 -32 -5 0 -7 5 -3 12 5 7
3 8 -5 4 -7 -5 -10 -14 -7 -21 7 -19 -5 -27 -20 -14 -10 8 -12 6 -9 -11 4 -18
2 -20 -11 -9 -8 7 -14 8 -12 3 3 -9 -37 -54 -47 -54 -3 0 -1 10 5 23 11 20 10
20 -8 -2 -11 -14 -18 -30 -16 -36 3 -7 -3 -18 -13 -26 -16 -12 -17 -12 -6 2
10 13 10 16 -2 16 -7 0 -14 -3 -13 -6 2 -22 -4 -41 -13 -41 -5 0 -7 5 -3 12 5
7 3 8 -5 4 -7 -5 -10 -14 -7 -21 5 -13 -27 -34 -57 -39 -24 -3 -38 -19 -40
-44 0 -11 -5 -18 -9 -16 -4 3 -8 0 -8 -7 0 -7 -3 -9 -6 -6 -4 4 -1 15 6 24 8
10 2 7 -12 -7 -14 -14 -24 -27 -22 -29 8 -9 -42 -39 -59 -35 -14 2 -16 0 -8
-10 13 -15 4 -27 -15 -19 -9 3 -12 -2 -9 -16 3 -19 2 -20 -18 -9 -21 11 -21
10 -7 -7 8 -10 10 -16 3 -12 -7 5 -21 -1 -31 -11 -10 -10 -26 -18 -36 -16 -13
2 -15 -1 -6 -10 12 -15 -12 -42 -29 -32 -5 4 -12 2 -16 -4 -3 -5 -1 -10 5 -10
6 0 8 -5 5 -10 -5 -8 -11 -7 -20 0 -11 10 -13 8 -10 -9 2 -12 -1 -20 -8 -18
-7 1 -11 -6 -11 -16 2 -13 -1 -15 -11 -7 -10 8 -15 6 -19 -8 -4 -11 -14 -19
-24 -18 -9 0 -16 -5 -14 -12 1 -8 -2 -11 -7 -8 -5 3 -17 -2 -28 -12 -10 -9
-14 -14 -9 -9 22 16 23 6 3 -17 -16 -19 -25 -22 -35 -14 -10 9 -12 8 -10 -3 2
-8 -5 -14 -14 -14 -10 0 -23 -6 -30 -14 -8 -9 -9 -11 -1 -7 6 3 14 2 17 -3 4
-5 -5 -8 -19 -6 -14 1 -25 -2 -25 -6 0 -5 5 -9 11 -9 5 0 7 -5 4 -10 -4 -6
-11 -8 -16 -5 -5 4 -9 1 -9 -5 0 -6 -4 -9 -9 -6 -10 6 -33 -17 -30 -30 3 -21
-2 -28 -11 -14 -8 13 -10 13 -10 -2 0 -12 -5 -15 -17 -11 -12 5 -14 3 -8 -7 6
-10 4 -12 -8 -7 -20 7 -23 -8 -4 -17 6 -4 2 -4 -10 -2 -17 3 -33 -8 -64 -42
-23 -26 -39 -42 -35 -35 3 6 1 15 -5 19 -7 4 -9 3 -5 -4 3 -6 2 -13 -4 -17 -6
-4 -7 -12 -3 -18 4 -7 -1 -6 -10 2 -15 12 -17 12 -11 -4 5 -13 4 -16 -5 -11
-7 5 -10 2 -9 -6 2 -7 -3 -12 -11 -10 -8 2 -11 -3 -8 -12 4 -9 2 -18 -3 -21
-4 -3 -10 -1 -12 4 -1 5 -12 3 -23 -6 l-20 -16 20 7 c14 5 17 4 10 -3 -6 -6
-22 -12 -35 -14 -15 -3 -24 -10 -22 -19 1 -9 -6 -22 -15 -29 -16 -13 -17 -12
-5 3 8 10 9 19 3 22 -13 8 -19 -4 -16 -32 1 -18 -2 -21 -18 -16 -13 4 -17 2
-13 -5 6 -9 -5 -15 -25 -13 -3 1 -6 -6 -6 -13 0 -12 3 -12 16 -2 14 11 14 10
2 -6 -8 -10 -20 -16 -27 -13 -6 2 -22 -7 -35 -21 -13 -15 -18 -23 -11 -19 6 4
12 2 12 -3 0 -6 -5 -11 -11 -11 -6 0 -9 -7 -5 -15 3 -8 0 -15 -6 -15 -7 0 -7
-4 1 -13 6 -8 8 -16 5 -19 -11 -12 -9 -198 2 -202 6 -2 9 -16 7 -29 -3 -14 0
-28 6 -31 8 -5 8 -13 1 -27 -8 -13 -7 -19 0 -19 7 0 8 -6 1 -18 -5 -10 -6 -24
-1 -32 5 -8 5 -21 -1 -31 -6 -12 -5 -19 2 -21 8 -3 6 -9 -4 -20 -9 -8 -14 -18
-11 -21 3 -3 1 -15 -6 -26 -8 -16 -8 -21 2 -21 8 0 9 -3 3 -8 -16 -11 -36 -52
-26 -52 8 0 -9 -64 -21 -76 -3 -3 -3 -18 2 -34 5 -18 4 -32 -3 -39 -8 -8 -8
-11 2 -11 7 0 9 -4 6 -10 -3 -5 0 -10 7 -10 10 0 9 -3 -2 -10 -12 -8 -12 -10
3 -16 13 -5 15 -10 7 -19 -8 -10 -8 -15 0 -20 8 -5 8 -11 -1 -21 -9 -11 -9
-14 0 -14 8 0 9 -5 1 -19 -6 -12 -6 -22 -1 -25 8 -5 8 -27 1 -46 -6 -15 -4
-36 4 -47 5 -9 4 -13 -4 -13 -8 0 -9 -4 -3 -12 11 -15 11 -28 0 -45 -5 -8 -3
-13 4 -13 7 0 9 -10 6 -26 -2 -14 0 -27 7 -30 11 -4 14 -90 2 -101 -3 -3 -1
-12 5 -20 6 -7 7 -13 2 -13 -5 0 -6 -27 -3 -61 3 -33 2 -63 -3 -66 -4 -2 -3
-11 4 -19 6 -8 7 -14 2 -14 -6 0 -6 -23 -1 -62 5 -35 6 -68 3 -75 -2 -7 0 -13
6 -13 6 0 7 -4 4 -10 -3 -5 0 -10 7 -10 9 0 9 -3 2 -8 -11 -8 -12 -51 0 -70 4
-7 2 -12 -5 -12 -9 0 -9 -3 0 -14 9 -10 9 -16 1 -21 -8 -5 -8 -10 0 -20 8 -10
8 -15 0 -20 -8 -5 -8 -11 1 -21 6 -8 8 -14 4 -14 -4 0 -2 -7 5 -15 11 -13 10
-14 -6 -9 -19 7 -19 6 0 -8 10 -8 16 -20 12 -26 -4 -6 -2 -21 5 -33 8 -15 8
-19 0 -15 -7 4 -11 -1 -11 -13 0 -12 5 -21 11 -21 7 0 9 -9 6 -21 -3 -12 0
-22 9 -26 11 -4 12 -9 4 -18 -8 -10 -8 -15 0 -20 8 -5 8 -11 -1 -21 -9 -11 -9
-14 0 -14 8 0 9 -5 1 -19 -7 -13 -7 -22 0 -26 7 -4 7 -12 0 -25 -6 -11 -6 -21
-1 -25 6 -3 6 -17 1 -35 -5 -17 -5 -32 0 -35 5 -3 5 -16 0 -31 -7 -17 -7 -23
0 -19 6 3 11 0 11 -7 1 -7 3 -24 4 -38 7 -58 7 -188 1 -199 -4 -6 -2 -11 4
-11 7 0 8 -6 2 -16 -11 -20 -4 -56 10 -48 6 4 6 0 0 -12 -7 -14 -6 -25 4 -38
9 -13 10 -24 3 -37 -7 -13 -6 -19 1 -19 7 0 8 -6 0 -19 -7 -13 -7 -22 0 -26 7
-4 7 -12 0 -25 -7 -13 -7 -21 0 -25 8 -5 7 -11 -1 -21 -9 -11 -9 -14 0 -14 9
0 9 -5 1 -20 -8 -14 -8 -20 0 -20 8 0 8 -6 0 -20 -8 -16 -8 -22 4 -26 8 -3 12
-12 9 -21 -3 -8 0 -18 7 -23 9 -5 9 -13 2 -27 -8 -14 -8 -23 0 -31 9 -9 9 -12
0 -12 -10 0 -10 -5 -2 -20 6 -11 7 -20 2 -20 -13 0 6 -163 20 -172 10 -6 10
-8 0 -8 -8 0 -10 -5 -6 -12 10 -16 13 -48 4 -48 -4 0 -7 -7 -7 -15 0 -8 4 -15
9 -15 5 0 4 -9 -2 -19 -6 -12 -6 -22 -1 -25 8 -5 8 -27 1 -46 -6 -15 -4 -36 4
-47 5 -9 4 -13 -5 -13 -9 0 -10 -3 -4 -8 15 -11 34 -91 23 -98 -5 -3 -4 -12 3
-20 6 -8 7 -14 2 -14 -7 0 -7 -15 -3 -40 4 -22 3 -43 -1 -46 -5 -3 -5 -13 0
-22 6 -11 6 -24 0 -34 -6 -11 -6 -19 1 -23 6 -4 8 -11 5 -16 -4 -5 0 -9 7 -9
10 0 10 -2 -1 -9 -9 -6 -10 -11 -2 -15 6 -4 9 -12 6 -17 -4 -5 -1 -9 5 -9 7 0
8 -6 1 -18 -6 -11 -6 -24 0 -35 6 -9 6 -17 2 -17 -4 0 -8 -11 -8 -25 0 -14 4
-25 8 -25 4 0 3 -9 -3 -20 -8 -14 -8 -20 0 -20 8 0 8 -6 0 -20 -8 -15 -8 -20
1 -20 8 0 8 -4 -1 -15 -9 -11 -9 -15 -1 -15 7 0 9 -4 6 -10 -3 -5 -1 -10 4
-10 6 0 11 -5 11 -11 0 -5 -5 -7 -11 -3 -6 3 -4 -4 5 -17 10 -16 12 -29 6 -39
-5 -9 -5 -19 2 -27 6 -8 7 -13 1 -13 -7 0 -8 -15 -3 -40 4 -22 3 -40 -1 -40
-5 0 -8 -6 -7 -12 4 -16 30 -38 40 -32 3 2 19 -1 35 -7 36 -15 63 -18 69 -7 3
4 14 3 24 -2 17 -9 19 -8 13 7 -6 16 -5 16 10 4 15 -11 17 -11 17 1 0 12 8 14
40 8 26 -5 40 -4 40 3 0 8 4 7 11 0 13 -13 42 -6 33 8 -3 5 2 6 11 2 10 -3 21
0 26 8 5 9 9 10 9 2 0 -8 9 -9 30 -3 16 5 32 5 35 0 8 -12 35 -6 46 11 6 9 9
10 9 2 0 -7 7 -10 15 -7 8 4 12 11 9 16 -4 6 2 5 14 -1 12 -6 23 -7 26 -2 3 5
21 5 42 1 27 -6 34 -5 30 5 -3 8 2 12 12 10 9 -1 23 2 29 8 9 6 13 6 13 -3 0
-10 3 -10 14 -1 10 9 16 9 21 1 5 -8 11 -8 19 -1 9 7 16 7 23 0 8 -8 13 -8 17
0 5 8 13 8 26 1 15 -8 18 -7 14 3 -3 10 5 13 31 12 19 0 35 2 35 5 0 3 16 4
35 2 25 -3 43 1 58 14 16 14 18 15 9 2 -10 -12 -10 -18 -1 -24 7 -4 9 -3 6 3
-4 6 5 15 18 21 13 6 27 8 29 3 6 -9 37 -8 54 3 7 4 12 2 12 -6 1 -8 6 -6 15
6 8 11 15 15 15 8 0 -6 7 -9 15 -6 8 4 12 11 9 16 -4 6 2 5 14 -1 12 -6 23 -7
26 -2 3 5 21 5 42 1 27 -6 34 -5 30 5 -3 8 2 12 12 10 9 -1 23 2 30 8 8 6 12
6 12 -3 0 -10 3 -10 15 0 11 9 15 9 15 1 0 -9 5 -9 21 0 15 8 19 8 15 0 -5 -8
0 -8 18 -1 17 6 27 6 32 -1 4 -7 10 -7 18 0 7 6 16 8 20 4 4 -4 19 -9 34 -11
14 -2 31 -7 37 -12 7 -6 16 -5 24 3 10 9 11 9 6 -4 -4 -10 -1 -20 6 -25 7 -4
10 -3 5 4 -3 6 -2 13 3 16 5 4 8 -2 6 -11 -1 -10 1 -25 6 -34 4 -8 4 -21 -1
-29 -5 -9 -5 -19 2 -27 7 -9 7 -13 -1 -13 -8 0 -9 -5 -2 -18 7 -13 6 -23 -2
-31 -9 -9 -9 -14 2 -20 8 -5 11 -16 8 -25 -4 -9 -2 -16 2 -16 5 0 8 -11 6 -25
-1 -14 1 -28 6 -30 7 -5 3 -51 -7 -66 -2 -4 4 -12 13 -18 10 -6 14 -11 9 -11
-5 0 -3 -6 3 -14 8 -10 9 -16 1 -21 -6 -3 -8 -11 -4 -16 8 -14 8 -165 -1 -178
-3 -6 -1 -11 5 -11 6 0 8 -5 5 -11 -4 -6 2 -19 14 -30 12 -11 21 -17 21 -13 0
3 6 1 13 -5 8 -6 17 -8 21 -4 3 4 31 5 62 4 42 -2 61 2 77 16 17 14 19 14 9 1
-10 -12 -10 -18 -1 -24 7 -4 9 -3 6 3 -4 6 5 15 18 21 13 6 27 7 30 3 7 -13
35 -7 46 10 6 9 9 10 9 2 0 -7 7 -10 15 -7 8 4 12 11 9 16 -4 6 1 6 13 -1 11
-6 23 -7 27 -4 4 4 22 6 41 5 20 -2 44 2 55 8 15 8 20 8 20 -2 0 -8 5 -5 11 5
8 14 14 15 24 7 8 -7 15 -7 19 -1 7 10 24 10 43 -2 6 -4 15 -2 19 4 5 8 8 8
14 -1 5 -9 11 -8 21 2 9 9 36 14 76 14 42 -1 59 2 52 10 -5 7 2 10 24 9 18 -1
38 3 45 8 8 6 12 6 12 -2 0 -7 8 -8 25 -1 16 6 26 6 31 -1 4 -6 14 -3 27 8 11
10 17 12 13 6 -4 -7 -2 -13 3 -13 6 0 11 6 11 13 0 9 2 9 9 -1 7 -11 9 -10 15
3 3 9 10 14 15 11 15 -10 71 -14 66 -6 -3 4 2 10 10 14 8 3 15 0 15 -7 0 -8 3
-7 9 2 11 17 39 23 47 10 4 -6 11 -6 19 1 9 8 15 8 20 0 4 -7 13 -7 27 1 14 8
18 8 14 0 -5 -7 -1 -9 8 -5 9 3 16 11 16 16 0 6 8 4 17 -3 11 -10 14 -10 9 -2
-5 10 4 13 36 13 24 1 60 7 80 14 27 10 39 10 42 2 3 -7 7 -7 14 3 6 8 12 10
16 3 4 -6 15 -9 26 -7 13 3 18 0 14 -7 -5 -7 -1 -9 9 -5 10 3 17 3 17 -1 0 -4
10 -8 22 -9 11 -1 24 -7 28 -14 6 -8 9 -8 13 2 4 10 6 10 6 2 1 -7 5 -13 11
-13 23 0 58 -42 52 -62 -4 -18 -2 -20 14 -15 18 7 18 7 0 -8 -13 -10 -15 -15
-6 -15 7 0 10 -3 7 -7 -4 -3 -2 -12 4 -19 7 -8 7 -14 -1 -19 -7 -4 -7 -12 0
-26 8 -14 7 -19 -1 -19 -8 0 -8 -4 1 -15 7 -8 10 -22 6 -30 -3 -10 -2 -14 5
-9 7 4 10 -4 8 -22 -2 -16 5 -44 14 -61 10 -18 14 -33 10 -33 -5 0 -8 -11 -8
-25 0 -14 3 -25 7 -25 3 0 4 -9 1 -20 -3 -11 -10 -20 -16 -20 -5 0 -2 -9 8
-20 14 -15 15 -19 4 -15 -10 4 -15 -1 -15 -15 0 -11 3 -20 7 -20 4 0 6 -16 5
-35 -1 -19 2 -35 7 -35 4 0 6 -4 3 -8 -3 -5 -5 -24 -6 -43 -1 -29 1 -47 9 -91
0 -5 8 -8 17 -8 8 0 12 -5 8 -11 -5 -8 -1 -8 14 0 27 14 35 14 26 -1 -4 -7 2
-5 13 4 11 10 25 18 31 18 7 0 12 4 12 9 0 5 6 16 13 23 18 17 29 76 17 83 -6
4 -7 -2 -3 -12 3 -10 2 -15 -2 -10 -5 4 -10 22 -11 40 -1 17 -3 34 -4 37 -6
17 3 127 11 137 7 7 6 14 -1 18 -14 9 -2 27 13 18 7 -3 4 2 -5 13 -9 10 -17
22 -17 27 -1 4 -1 10 -2 15 0 4 0 34 1 67 0 33 0 65 0 70 -2 40 -8 66 -19 79
-9 10 -10 16 -3 16 6 0 9 6 6 14 -3 8 -1 17 5 21 6 3 14 0 17 -8 3 -9 13 -13
25 -10 11 3 19 0 19 -8 0 -7 3 -9 7 -6 3 4 15 -1 25 -10 18 -16 19 -16 13 3
-6 18 -6 19 9 0 10 -12 23 -17 36 -13 13 3 23 0 27 -9 3 -8 9 -11 14 -8 5 3 9
-1 9 -8 0 -9 3 -9 10 2 7 12 10 12 10 1 0 -7 6 -11 13 -8 7 3 19 -4 26 -15 9
-14 16 -17 23 -10 12 12 41 4 33 -8 -3 -5 4 -6 15 -3 11 3 27 0 35 -7 8 -6 19
-9 25 -5 5 3 10 1 10 -5 0 -6 4 -9 9 -5 5 3 12 1 16 -5 4 -6 11 -8 16 -4 5 3
17 0 26 -8 12 -9 15 -9 9 -1 -5 9 -2 11 8 7 8 -3 17 -11 19 -18 3 -8 17 -12
31 -11 14 2 26 0 26 -4 0 -4 10 -7 22 -8 11 -1 24 -7 28 -13 4 -7 10 -11 14
-11 28 4 46 -1 40 -10 -5 -8 -2 -9 12 -1 14 8 25 6 46 -10 20 -14 28 -16 28
-6 1 9 4 8 10 -3 6 -11 18 -15 35 -11 15 2 25 0 25 -7 0 -7 5 -9 10 -6 6 4 17
1 25 -5 8 -6 19 -9 25 -5 5 3 13 -1 16 -9 3 -9 10 -16 16 -16 5 0 6 4 3 10 -3
5 0 7 9 4 8 -3 17 -12 20 -20 3 -7 12 -11 20 -8 8 3 27 -3 42 -13 21 -13 26
-14 19 -3 -8 13 -7 13 8 1 10 -8 21 -11 24 -7 4 4 13 -4 21 -16 7 -13 11 -15
8 -6 -3 10 -1 18 4 18 6 0 10 -5 10 -11 0 -6 6 -9 14 -6 8 3 16 1 18 -4 2 -5
13 -11 26 -12 12 0 22 -4 22 -8 0 -4 9 -5 20 -2 11 3 27 -1 36 -8 9 -7 24 -14
33 -14 54 -4 56 -5 41 -15 -12 -8 -9 -10 13 -10 20 0 26 -4 21 -13 -5 -7 0 -6
11 3 10 8 16 10 12 4 -4 -7 0 -15 9 -18 12 -5 15 -2 10 9 -3 9 -2 13 4 10 6
-3 10 -12 10 -18 0 -7 16 -12 37 -13 20 0 39 -6 41 -12 3 -9 9 -9 23 -2 13 8
19 7 19 0 0 -6 5 -8 10 -5 6 3 10 2 10 -3 0 -6 8 -9 18 -8 10 0 16 -5 14 -13
-2 -11 0 -12 11 -2 12 9 16 8 21 -5 5 -13 9 -14 20 -5 10 9 16 9 21 1 4 -6 13
-9 21 -6 8 3 14 1 14 -5 0 -6 5 -7 10 -4 6 3 10 1 10 -5 0 -6 5 -8 10 -5 6 3
10 -2 11 -12 0 -16 1 -16 9 2 5 11 9 14 9 7 1 -7 5 -11 10 -8 5 3 12 -1 15
-10 5 -13 9 -14 21 -4 11 9 15 9 15 1 0 -7 5 -9 10 -6 6 3 10 2 10 -4 0 -5 9
-8 20 -6 11 2 23 -1 26 -7 5 -7 2 -8 -6 -3 -9 5 -11 4 -6 -4 6 -9 11 -9 22 0
11 9 15 8 20 -5 3 -9 10 -16 16 -16 5 0 6 6 2 12 -10 16 25 -9 44 -31 7 -9 12
-11 12 -3 0 7 7 12 15 12 8 0 15 -5 15 -11 0 -5 4 -7 10 -4 6 3 10 1 10 -4 0
-6 5 -11 11 -11 5 0 7 6 3 13 -6 9 -5 9 7 0 8 -6 31 -14 51 -18 21 -4 35 -12
32 -17 -4 -6 2 -5 14 1 15 8 23 8 28 -1 5 -7 3 -8 -6 -3 -8 5 -11 4 -6 -3 3
-6 15 -9 26 -7 11 2 20 0 20 -5 0 -4 7 -11 16 -14 10 -4 13 -2 7 7 -4 6 4 4
19 -5 17 -11 29 -13 36 -6 6 6 12 6 17 -3 6 -8 4 -10 -5 -4 -9 6 -11 4 -6 -4
5 -7 14 -10 21 -7 8 3 15 1 17 -4 2 -5 17 -10 35 -12 17 -1 29 -6 27 -10 -3
-4 8 -8 25 -8 16 0 33 -5 36 -10 4 -6 11 -8 16 -4 5 3 17 0 26 -8 12 -9 15 -9
9 -1 -5 9 -2 11 8 7 9 -3 16 -10 16 -14 0 -4 7 -11 16 -14 10 -4 13 -2 8 7 -6
9 -5 9 8 0 8 -7 18 -10 21 -6 4 3 7 1 7 -6 0 -7 5 -9 10 -6 6 3 10 0 10 -7 0
-9 3 -9 10 2 7 12 10 12 10 1 0 -7 6 -11 14 -8 8 3 17 -1 20 -8 3 -8 12 -12
21 -9 8 3 15 1 15 -6 0 -6 5 -8 11 -5 5 4 20 -1 32 -12 19 -16 20 -16 8 0 -12
15 -12 17 3 11 9 -3 16 -10 16 -16 0 -5 5 -6 10 -3 6 3 10 1 10 -4 0 -6 4 -11
10 -11 5 0 7 8 3 18 -4 12 -1 11 14 -6 11 -12 32 -23 46 -24 15 -1 29 -8 31
-15 3 -7 12 -10 20 -7 8 3 21 2 28 -2 7 -5 25 -9 40 -9 15 0 31 -5 35 -9 5 -5
2 -6 -6 -1 -10 6 -12 4 -6 -4 5 -9 11 -9 17 -3 12 12 41 4 33 -8 -3 -5 4 -6
15 -3 11 3 20 1 20 -5 0 -5 7 -13 16 -16 8 -3 12 -2 9 4 -3 6 -1 10 4 10 6 0
11 -5 11 -11 0 -5 5 -7 10 -4 6 3 10 2 10 -4 0 -6 7 -7 17 -4 11 4 14 3 9 -5
-5 -8 -2 -10 8 -6 9 3 22 -1 31 -10 9 -8 22 -13 30 -10 8 4 15 2 15 -4 0 -5
11 -8 25 -7 14 2 25 0 25 -5 0 -4 9 -6 20 -3 12 3 20 0 20 -6 0 -7 5 -9 12 -5
8 5 9 1 5 -12 -7 -18 -7 -18 8 0 9 12 15 15 15 7 0 -8 6 -11 15 -7 8 3 15 2
15 -2 0 -4 9 -13 21 -20 16 -10 19 -10 13 -1 -5 9 -2 10 10 6 10 -4 22 -7 27
-7 6 0 8 -4 4 -9 -3 -6 3 -8 15 -6 11 2 22 0 25 -6 4 -5 16 -9 27 -9 11 0 30
-10 41 -22 15 -17 18 -18 14 -5 -4 9 -2 17 3 17 6 0 10 -5 10 -10 0 -6 3 -9 8
-8 4 1 18 -4 31 -11 13 -7 21 -8 17 -2 -5 7 -1 9 8 5 9 -3 16 -10 16 -16 0 -5
5 -6 10 -3 6 3 10 -2 11 -12 0 -16 1 -16 9 2 5 11 9 14 9 6 1 -7 7 -11 15 -8
8 3 17 -2 21 -11 5 -14 7 -14 15 -2 6 8 10 10 10 5 0 -10 17 -15 63 -18 9 -1
17 -5 17 -9 0 -4 3 -7 8 -7 17 4 72 -14 72 -23 0 -6 9 -8 20 -5 12 3 24 -1 30
-11 6 -11 10 -12 10 -4 0 9 5 10 19 3 14 -8 20 -7 25 4 3 8 10 15 16 15 6 0 8
-5 4 -11 -4 -8 0 -8 15 0 11 7 21 18 21 25 0 8 8 20 18 27 16 13 16 13 2 -6
-14 -18 -14 -19 2 -7 10 8 20 23 23 33 6 17 9 18 23 7 12 -10 14 -10 8 0 -4 7
-2 12 4 12 6 0 8 5 5 10 -4 6 -1 9 7 8 7 -2 12 2 11 8 -1 6 11 11 27 12 38 1
53 10 46 29 -4 9 -2 11 6 7 7 -5 9 -1 6 13 -3 13 0 20 9 20 8 0 12 -6 9 -14
-4 -8 -1 -11 5 -7 6 3 9 15 6 25 -6 23 18 46 29 28 5 -8 3 -9 -6 -4 -9 5 -11
4 -6 -4 9 -14 28 -2 59 37 10 12 23 20 28 17 5 -4 9 -2 9 4 0 6 15 14 33 19
17 4 33 14 33 20 1 7 2 17 3 22 0 6 8 10 16 10 9 0 12 6 9 15 -4 8 -1 15 6 15
6 0 20 10 31 22 10 13 18 17 19 11 0 -7 4 -13 9 -13 5 0 8 11 7 23 -2 19 1 23
19 22 13 -2 22 3 22 11 0 10 -4 11 -16 3 -9 -6 0 3 19 20 34 30 58 41 45 20
-4 -6 2 -5 13 2 12 7 18 18 14 24 -3 5 1 4 9 -2 18 -15 41 1 33 22 -3 7 0 16
7 21 8 5 10 3 4 -7 -7 -11 -6 -12 7 -2 8 7 18 10 21 6 4 -3 7 -1 7 5 0 7 -5
12 -11 12 -5 0 -8 4 -4 10 3 5 12 7 20 4 10 -4 13 0 10 15 -3 19 -2 20 18 9
20 -10 21 -10 9 5 -12 14 -11 16 8 12 19 -4 20 -2 9 13 -7 9 -9 14 -5 10 5 -4
15 0 23 10 8 9 12 11 8 4 -9 -17 10 -15 29 3 8 9 19 15 23 14 20 -3 25 2 14
15 -9 11 -9 16 0 22 8 4 9 3 5 -4 -4 -7 -2 -12 3 -12 6 0 11 6 11 14 0 8 5 16
10 18 6 2 12 13 12 25 1 11 7 19 13 16 7 -2 17 6 24 19 6 13 9 15 7 6 -3 -10
-1 -18 4 -18 6 0 10 7 10 16 0 11 6 15 20 11 16 -4 18 -2 10 12 -6 13 -5 18 5
18 8 0 12 -4 9 -9 -3 -4 -1 -8 4 -8 6 0 13 7 16 16 3 9 12 14 18 12 7 -3 18 5
23 16 7 12 19 20 29 18 10 -2 15 1 12 7 -4 5 3 12 14 16 11 4 18 10 15 15 -3
5 4 7 16 5 12 -2 19 -2 16 2 -3 3 2 13 11 22 11 10 12 12 2 6 -13 -9 -13 -8 0
9 8 10 25 22 38 27 15 6 21 13 16 21 -5 8 0 7 11 -2 11 -9 16 -10 11 -3 -4 8
-2 13 4 13 6 0 8 5 4 13 -6 8 -3 8 9 -1 14 -12 16 -11 12 7 -3 18 -1 20 14 11
16 -8 18 -5 15 16 -2 22 0 23 14 12 13 -11 14 -11 7 1 -6 11 -4 13 9 8 10 -4
15 -3 11 3 -3 6 -1 10 5 10 6 0 8 6 4 12 -4 7 2 5 13 -5 16 -14 20 -14 20 -2
0 8 -4 12 -9 9 -4 -3 -8 0 -8 7 0 7 8 9 21 6 12 -3 18 -3 15 0 -3 4 0 13 8 22
8 9 15 21 15 26 1 6 7 10 14 10 6 0 13 6 13 13 3 24 4 24 21 11 10 -9 14 -9
10 -2 -5 7 1 17 13 23 12 6 18 16 13 23 -5 8 -2 8 9 -1 13 -10 17 -10 22 3 3
9 11 13 17 9 8 -4 9 -3 5 5 -6 9 -12 9 -24 -1 -15 -12 -16 -11 -3 5 8 9 16 15
18 13 6 -6 27 10 66 51 24 25 33 30 44 21 11 -8 12 -7 7 6 -4 11 -2 16 7 14 8
-2 13 3 11 11 -3 12 0 12 12 1 9 -7 17 -10 17 -6 1 3 3 11 4 16 1 6 3 16 4 23
1 8 4 7 11 -3 8 -12 10 -10 11 10 0 14 3 19 6 13 2 -7 10 -13 15 -13 6 0 8 3
5 6 -9 10 12 46 24 39 5 -4 9 -1 9 4 0 6 8 11 18 11 14 0 15 2 2 10 -13 8 -12
10 3 10 9 0 17 4 17 9 0 6 8 8 19 6 14 -2 17 2 15 21 -1 13 2 24 7 24 5 0 9
-5 9 -11 0 -7 10 -1 23 13 13 14 31 24 40 22 9 -1 17 2 17 7 0 5 -5 9 -11 9
-5 0 -8 4 -4 10 3 5 12 7 20 4 10 -4 13 0 10 15 -3 19 -2 20 18 9 20 -10 21
-10 8 6 -12 14 -12 16 4 10 14 -6 16 -4 10 6 -6 10 -3 12 12 8 17 -4 20 -2 16
16 -3 12 -1 17 4 11 4 -5 15 -11 23 -13 12 -3 13 -1 3 9 -19 19 34 74 54 57
11 -8 12 -7 7 6 -4 11 -2 16 7 14 8 -2 13 3 11 11 -3 12 0 12 12 1 9 -7 16
-11 17 -9 0 2 2 12 4 23 2 10 9 24 15 30 8 8 9 6 4 -9 -5 -15 -4 -17 5 -9 7 6
13 20 14 32 1 17 4 19 16 9 12 -10 13 -9 6 2 -6 11 -4 13 8 8 12 -4 14 -2 10
10 -4 11 -2 14 5 9 7 -4 12 -2 12 5 0 8 5 7 17 -2 9 -8 14 -9 10 -2 -4 6 -1
14 5 16 10 4 10 6 1 6 -7 1 -13 5 -13 10 0 6 9 8 20 6 16 -3 22 3 27 25 3 16
10 27 15 24 6 -4 8 2 4 14 -4 11 -2 23 3 27 6 3 8 0 5 -8 -3 -8 0 -18 6 -22 6
-3 9 -3 8 2 -1 4 10 22 26 38 16 17 26 24 21 17 -6 -11 -3 -12 13 -3 12 6 24
17 28 24 6 9 5 9 -7 0 -13 -10 -16 -10 -16 2 0 8 3 12 7 10 4 -2 16 3 26 11
10 9 13 12 5 8 -10 -5 -12 -3 -7 5 6 9 11 9 21 1 11 -9 13 -6 11 14 -3 22 -1
24 15 15 14 -7 17 -6 13 4 -4 10 2 14 20 12 22 -3 24 -1 16 15 -9 16 -7 18 15
14 20 -3 23 -1 18 13 -3 10 -3 15 2 11 4 -4 16 2 26 13 10 12 23 18 30 13 8
-4 9 -3 5 4 -4 7 -2 12 4 12 6 0 8 5 4 11 -4 8 1 9 17 4 20 -6 22 -5 12 6 -10
10 -9 16 4 31 9 10 21 18 28 18 17 0 71 52 67 64 -2 5 4 4 12 -4 13 -10 16
-10 16 4 0 10 4 15 9 11 5 -3 13 0 17 6 4 7 3 9 -4 5 -6 -3 -13 -2 -17 4 -3 5
1 10 10 10 14 0 16 20 13 175 -2 143 0 175 11 175 11 0 11 3 0 17 -12 15 -12
16 3 10 15 -5 16 -2 8 18 -6 16 -6 25 1 25 6 0 6 7 -1 20 -6 11 -7 20 -2 20 4
0 8 9 8 20 0 11 -4 20 -9 20 -5 0 -4 6 2 14 8 10 9 16 1 21 -7 4 -7 13 1 27 8
14 8 18 0 14 -7 -5 -9 -1 -5 8 3 9 11 16 16 16 6 0 4 8 -3 17 -11 13 -11 15
-1 9 11 -6 13 2 11 38 -2 25 0 48 4 52 4 4 2 13 -4 21 -7 8 -7 13 -2 13 7 0 7
15 3 40 -4 22 -3 43 1 46 5 3 5 12 0 22 -5 9 -5 23 0 34 5 10 14 27 19 38 7
14 7 20 0 20 -7 0 -8 6 0 19 7 14 7 22 0 26 -8 5 -8 11 0 20 6 8 7 16 2 19 -5
3 -6 23 -2 46 4 22 4 42 0 45 -4 3 -4 23 0 45 5 25 4 40 -3 40 -6 0 -3 8 5 18
8 9 14 32 14 50 -1 17 3 32 8 32 5 0 4 6 -2 13 -7 8 -7 18 -2 27 5 9 5 19 -2
27 -7 9 -7 13 1 13 8 0 9 5 1 19 -7 14 -7 22 0 26 8 5 7 11 -1 21 -9 11 -9 14
0 14 9 0 9 5 1 20 -9 16 -8 20 6 20 13 0 14 3 4 15 -10 12 -9 15 5 15 14 0 15
3 6 14 -9 10 -9 16 -1 21 8 5 8 10 0 20 -8 10 -8 15 0 20 8 5 8 11 1 19 -7 9
-7 16 1 24 9 9 9 12 -1 12 -10 0 -11 3 -2 14 7 9 8 17 2 20 -10 7 -9 31 2 42
4 4 2 13 -4 20 -9 11 -7 15 6 20 13 5 14 9 3 15 -9 6 -10 9 -1 9 7 0 10 6 7
14 -3 8 -1 17 5 20 6 4 6 18 1 36 -5 17 -6 30 -2 30 8 0 6 155 -2 176 -3 8 1
17 10 21 13 5 13 7 2 14 -10 7 -10 9 0 9 6 0 12 5 12 11 0 5 -6 7 -12 3 -7 -4
-5 2 5 13 11 12 14 24 9 27 -9 5 -9 26 -2 46 6 15 4 36 -4 48 -5 8 -4 12 4 12
9 0 9 4 -1 17 -14 17 -14 20 2 40 7 7 6 14 -1 18 -7 4 -8 11 -1 18 16 20 16
23 2 40 -11 15 -11 17 2 17 11 0 13 6 9 22 -3 12 -1 19 4 15 6 -3 7 18 4 54
-3 32 -2 59 2 59 5 0 4 9 -2 20 -6 11 -7 20 -2 20 4 0 5 27 2 60 -5 49 -3 60
9 60 11 0 12 3 4 11 -9 9 -8 16 4 27 10 10 12 17 5 20 -6 2 -9 9 -6 16 8 21
10 135 3 130 -4 -2 -5 5 -2 16 3 11 10 20 17 20 6 0 4 5 -4 10 -11 7 -11 10
-2 10 7 0 10 5 7 10 -3 6 0 10 7 10 8 0 9 3 3 8 -12 9 -18 32 -8 32 7 0 8 37
4 165 -2 59 4 103 13 98 5 -4 7 3 4 15 -4 12 -2 25 3 28 6 4 6 11 -1 19 -8 9
-8 15 0 20 6 4 7 12 1 23 -5 9 -5 26 0 39 5 15 5 23 -2 23 -6 0 -6 7 1 19 6
12 6 22 1 25 -8 5 -8 34 -1 44 7 7 5 29 -3 40 -7 8 -5 12 6 12 11 0 13 6 9 22
-3 11 -1 19 4 15 5 -3 8 36 6 92 -3 78 0 100 12 110 11 10 13 18 6 31 -7 13
-7 21 0 25 8 5 7 11 -1 21 -9 11 -9 14 1 14 10 0 10 3 1 14 -9 10 -9 16 -1 21
6 4 7 12 2 18 -10 14 -10 27 1 44 4 6 3 14 -3 18 -6 4 -7 11 -4 17 11 17 10
78 -1 78 -5 0 -2 6 7 14 14 10 15 15 5 26 -8 8 -8 11 -1 7 14 -8 25 71 11 80
-4 2 -3 10 2 17 6 7 8 16 4 19 -8 9 -10 77 -2 77 4 0 10 7 13 16 3 8 2 12 -4
9 -6 -3 -10 -1 -10 4 0 6 5 11 11 11 6 0 9 9 6 20 -3 11 -2 20 1 20 9 0 7 58
-1 66 -3 3 -2 16 3 28 4 13 5 29 0 36 -5 7 -4 24 1 37 5 14 5 23 -1 23 -6 0
-6 9 -1 23 4 12 8 34 7 49 -1 14 1 25 5 22 11 -7 18 22 9 36 -5 8 -4 22 1 32
7 12 6 18 -1 18 -7 0 -8 6 -1 17 5 10 5 26 0 40 -5 13 -5 23 0 23 5 0 5 18 1
40 -4 22 -5 40 -1 40 3 0 7 10 7 23 4 56 10 87 17 87 4 0 3 9 -3 20 -8 14 -8
20 0 20 7 0 8 6 2 17 -5 9 -6 29 -2 44 5 15 6 30 2 33 -3 3 -1 6 5 6 5 0 9 16
8 35 0 19 2 35 6 35 3 0 3 18 -1 40 -4 23 -3 43 2 46 5 3 4 12 -3 20 -6 8 -7
14 -2 14 7 0 7 15 3 40 -4 22 -4 42 0 45 8 5 4 61 -6 77 -4 6 -2 8 3 5 12 -7
11 42 -1 61 -4 7 -3 12 3 12 7 0 7 9 0 27 -6 15 -7 24 -3 20 9 -9 33 54 25 68
-8 15 -9 45 -1 45 4 0 7 7 7 15 0 8 -4 15 -9 15 -5 0 -4 9 2 19 6 12 6 22 1
25 -7 5 -8 41 -1 41 7 0 5 47 -2 51 -5 3 -4 12 3 20 6 8 7 14 2 14 -5 0 -10 7
-10 15 0 8 4 12 9 9 4 -3 8 3 8 13 0 11 5 24 12 31 9 9 9 12 -1 12 -10 0 -11
3 -2 14 8 9 8 16 2 20 -6 4 -8 13 -5 20 3 8 -2 23 -12 34 -13 16 -22 19 -36
11 -13 -7 -18 -6 -18 2 0 8 -4 8 -15 -1 -8 -7 -15 -8 -15 -3 0 6 -18 7 -45 3
-25 -4 -48 -3 -51 2 -3 5 -12 4 -19 -2 -10 -8 -15 -8 -20 0 -5 8 -11 7 -23 -2
-12 -10 -14 -10 -8 0 4 6 3 12 -3 12 -5 0 -17 3 -27 7 -12 5 -15 3 -9 -6 4 -7
-5 -5 -21 5 -15 11 -25 13 -21 7 10 -17 7 -16 -33 4 -35 17 -100 24 -100 10 0
-4 -9 -3 -20 3 -11 6 -20 7 -20 2 0 -10 -30 -9 -48 2 -6 4 -12 3 -12 -2 0 -10
-26 -9 -52 3 -10 4 -25 4 -33 1 -9 -3 -18 1 -22 9 -4 12 -9 13 -18 5 -10 -8
-15 -8 -20 0 -5 8 -10 8 -20 0 -9 -8 -15 -8 -20 0 -3 6 -10 8 -15 5 -4 -3 -10
2 -14 10 -4 11 -12 13 -28 7 -21 -8 -40 -8 -53 -2 -6 3 -43 3 -52 0 -23 -7
-39 -3 -51 10 -8 8 -11 10 -8 3 4 -8 -8 -8 -44 2 -29 8 -50 9 -50 4 0 -6 -8
-5 -20 1 -13 7 -20 7 -20 1 0 -7 -8 -7 -24 -1 -13 5 -27 6 -30 3 -3 -3 -13 0
-23 8 -11 9 -14 10 -9 2 5 -9 2 -11 -8 -7 -9 3 -16 10 -16 15 0 6 -8 5 -19 0
-14 -8 -20 -7 -25 5 -5 12 -10 13 -27 3 -12 -6 -19 -7 -15 -1 3 5 -3 12 -14
15 -11 3 -22 1 -25 -4 -3 -4 -11 -6 -18 -4 -10 4 -63 12 -104 17 -7 1 -13 6
-13 12 0 6 -5 4 -10 -4 -8 -12 -10 -12 -10 -1 0 9 -4 10 -12 4 -15 -11 -28
-11 -45 0 -8 5 -13 4 -13 -3 0 -6 -5 -8 -12 -4 -18 11 -48 12 -54 2 -3 -5 -14
-2 -25 7 -18 17 -129 28 -129 13 0 -4 -11 -4 -23 1 -13 5 -30 5 -37 1 -9 -6
-18 -3 -27 8 -10 14 -12 14 -13 2 0 -13 -1 -13 -10 0 -5 8 -10 11 -10 7 0 -4
-8 -3 -19 2 -10 6 -21 7 -25 4 -10 -10 -56 -10 -56 1 0 5 -3 6 -7 3 -3 -4 -13
-1 -21 6 -13 10 -14 9 -7 -3 7 -12 6 -13 -6 -4 -8 6 -21 12 -29 12 -158 6
-193 10 -201 23 -7 11 -9 11 -9 1 0 -8 -5 -10 -12 -5 -17 10 -68 11 -62 1 3
-4 0 -8 -5 -8 -6 0 -11 4 -11 8 0 5 -6 9 -12 10 -7 1 -26 4 -43 6 -16 3 -65 6
-107 7 -56 2 -79 7 -83 17 -4 11 -8 12 -19 3 -10 -9 -16 -9 -21 -1 -5 8 -10 8
-20 0 -10 -8 -15 -8 -20 0 -5 8 -11 8 -19 1 -7 -6 -16 -8 -20 -4 -6 7 -17 9
-66 17 -14 2 -29 5 -35 6 -5 1 -13 1 -17 0 -9 -2 -87 -2 -90 0 -3 1 -25 7 -50
13 -7 1 -19 6 -25 10 -8 5 -13 3 -13 -3 0 -7 -6 -8 -18 -1 -11 6 -24 6 -34 0
-11 -6 -19 -5 -23 1 -5 8 -11 8 -20 0 -9 -8 -14 -6 -19 7 -6 15 -8 15 -16 3
-7 -11 -10 -12 -10 -2 0 7 -4 10 -10 7 -5 -3 -10 -1 -10 6 0 10 -3 10 -11 2
-8 -8 -20 -8 -35 -3 -13 5 -24 6 -24 2 0 -11 -151 5 -163 17 -7 7 -16 7 -29 0
-12 -7 -18 -6 -18 1 0 7 -6 8 -17 1 -10 -5 -26 -5 -39 -1 -12 5 -24 6 -27 3
-9 -8 -48 8 -42 18 8 13 -9 11 -22 -2 -8 -8 -13 -8 -17 0 -5 8 -13 8 -27 1
-14 -8 -19 -7 -19 1 0 8 -4 9 -13 0 -8 -6 -17 -8 -21 -4 -6 6 -20 9 -63 15 -7
1 -13 5 -13 9 0 5 -11 4 -25 -1 -16 -6 -25 -6 -25 0 0 6 -9 6 -25 0 -14 -5
-25 -6 -25 -1 0 4 -6 8 -12 9 -42 5 -95 13 -105 17 -7 2 -13 0 -13 -6 0 -6 -3
-8 -7 -6 -5 3 -25 8 -47 11 -21 4 -43 9 -49 13 -15 9 -47 11 -47 4 0 -3 -11
-6 -25 -6 -14 0 -25 3 -25 6 0 3 -6 6 -12 7 -33 2 -103 14 -107 17 -2 3 -12 0
-22 -6 -11 -5 -19 -6 -19 -1 0 5 -7 9 -15 9 -8 0 -15 -4 -15 -9 0 -5 -10 -4
-21 3 -17 9 -24 8 -31 -2 -8 -11 -9 -10 -5 3 4 10 -1 18 -14 21 -10 3 -19 1
-19 -4 0 -6 -8 -5 -19 1 -12 6 -22 6 -25 1 -7 -10 -25 -9 -43 2 -8 5 -13 3
-13 -5 0 -11 -2 -11 -9 0 -5 8 -38 15 -87 19 -43 3 -85 11 -93 17 -11 8 -13 8
-7 -1 11 -19 -5 -16 -21 5 -9 10 -12 11 -7 2 5 -12 4 -13 -6 -3 -9 8 -19 9
-32 2 -11 -6 -18 -6 -18 0 0 6 -11 6 -30 1 -18 -5 -32 -5 -36 1 -4 6 -11 6
-20 -2 -10 -8 -14 -8 -14 0 0 6 -11 11 -24 11 -13 0 -26 5 -28 11 -3 9 -9 9
-24 1 -15 -8 -24 -8 -32 0 -9 9 -12 9 -12 -1 0 -10 -3 -11 -14 -2 -10 8 -16 9
-21 1 -3 -6 -12 -7 -18 -3 -10 6 -26 10 -64 15 -7 1 -13 5 -13 9 0 5 -11 4
-25 -1 -16 -6 -25 -6 -25 0 0 6 -9 6 -25 0 -16 -6 -25 -6 -25 1 0 6 -7 6 -20
-1 -14 -7 -20 -7 -20 0 0 5 -10 10 -22 10 -13 0 -30 4 -37 9 -9 6 -22 6 -33 0
-12 -7 -18 -6 -18 1 0 7 -6 8 -18 1 -14 -7 -25 -6 -42 6 -13 9 -20 11 -16 5 4
-7 2 -12 -3 -12 -6 0 -11 5 -11 11 0 5 -4 7 -10 4 -5 -3 -10 0 -10 7 0 10 -2
10 -9 -1 -5 -7 -11 -9 -14 -4 -7 11 -36 11 -54 0 -6 -4 -15 -3 -18 3 -5 8 -11
7 -21 -1 -11 -9 -14 -9 -14 0 0 9 -5 9 -20 1 -16 -9 -22 -8 -27 5 -5 13 -7 14
-14 3 -6 -8 -9 -9 -9 -1 0 7 -20 11 -60 10 -33 -1 -60 2 -60 6 0 5 -5 5 -10 2
-6 -4 -17 -1 -25 5 -8 6 -18 9 -23 7 -4 -3 -14 -2 -22 3 -7 4 -24 4 -36 0 -14
-6 -26 -5 -29 0 -4 7 -13 6 -25 0 -13 -7 -20 -6 -22 1 -2 6 -33 13 -68 15 -56
4 -123 10 -167 16 -7 1 -13 6 -13 11 0 5 -7 4 -15 -3 -12 -10 -15 -10 -15 0 0
10 -3 10 -14 1 -9 -7 -17 -8 -20 -2 -4 5 -18 6 -34 2 -17 -5 -37 -3 -56 6 -20
11 -26 11 -20 2 4 -7 -3 -5 -16 4 -17 12 -28 13 -42 6 -12 -7 -18 -6 -18 1 0
6 -5 8 -11 5 -16 -11 -79 -11 -79 -2 0 5 -12 7 -26 4 -15 -3 -28 0 -30 8 -4
11 -31 13 -41 5 -8 -7 -30 -5 -40 3 -9 6 -13 5 -13 -4 0 -9 -3 -10 -8 -4 -10
14 -92 35 -92 23 0 -5 -9 -4 -20 2 -11 6 -20 7 -20 2 0 -5 -18 -6 -40 -2 -22
4 -40 4 -40 -1 0 -5 -12 -4 -27 2 -14 5 -33 7 -40 5 -8 -3 -16 1 -20 9 -4 12
-9 13 -19 4 -11 -9 -14 -8 -14 1 0 10 -3 10 -14 1 -10 -9 -16 -9 -21 -1 -5 8
-11 8 -19 1 -8 -6 -16 -7 -22 -1 -5 5 -17 3 -28 -5z m-706 -610 c-7 -9 -15
-13 -17 -11 -6 6 20 36 26 30 2 -2 -2 -10 -9 -19z m4190 -25 c8 5 21 5 32 -1
12 -6 18 -6 18 0 0 6 11 6 30 1 19 -5 30 -5 30 1 0 6 8 5 20 -1 15 -8 20 -8
20 1 0 8 4 8 15 -1 8 -7 15 -9 15 -6 0 4 10 1 23 -6 12 -6 34 -11 48 -9 14 1
32 -5 39 -14 7 -9 9 -15 4 -14 -19 3 -34 -1 -34 -12 0 -5 5 -7 10 -4 16 10 11
-1 -7 -16 -14 -12 -16 -12 -9 1 4 8 0 6 -8 -5 -47 -59 -90 -103 -98 -99 -4 3
-8 0 -8 -6 0 -6 -5 -8 -11 -4 -8 4 -9 -1 -4 -17 7 -20 6 -22 -7 -12 -12 10
-19 8 -41 -15 -19 -20 -24 -31 -16 -39 8 -8 7 -13 -2 -18 -8 -5 -10 -4 -5 3 4
7 2 12 -3 12 -6 0 -11 -7 -11 -15 0 -8 -5 -15 -11 -15 -8 0 -7 -6 2 -17 10
-12 10 -15 1 -9 -13 8 -34 -32 -24 -48 3 -5 1 -6 -5 -3 -5 4 -19 -2 -30 -13
-12 -10 -24 -16 -27 -13 -3 4 -6 1 -6 -6 0 -7 -4 -9 -10 -6 -5 3 -7 0 -4 -9 5
-14 -28 -41 -38 -31 -3 3 -5 -2 -5 -10 0 -12 3 -12 16 -2 14 11 14 10 2 -6 -8
-10 -20 -16 -27 -13 -7 3 -18 -3 -26 -12 -9 -11 -10 -14 0 -8 6 4 12 3 12 -2
0 -6 -11 -13 -25 -16 -14 -4 -25 -12 -25 -20 0 -7 -10 -21 -22 -32 -12 -10
-18 -13 -13 -5 6 10 4 12 -4 7 -9 -6 -9 -11 -1 -21 8 -9 4 -12 -15 -10 -14 2
-23 -2 -22 -8 1 -7 -4 -11 -11 -9 -10 2 -10 -2 -1 -19 10 -19 9 -21 -6 -15
-15 5 -16 4 -5 -9 12 -14 7 -20 -14 -16 -13 3 -46 -31 -40 -40 3 -5 0 -9 -6
-9 -6 0 -8 -5 -4 -11 4 -8 -1 -9 -17 -4 -19 6 -22 5 -12 -6 14 -14 0 -39 -20
-39 -6 0 -2 7 9 16 18 14 18 15 -4 4 -20 -10 -21 -14 -10 -28 10 -12 10 -14 1
-8 -8 4 -13 2 -13 -5 0 -7 -3 -10 -6 -6 -4 3 -13 -1 -21 -9 -8 -8 -20 -11 -26
-7 -8 4 -8 1 1 -9 10 -13 9 -16 -9 -21 -11 -3 -18 -10 -15 -16 4 -5 2 -12 -4
-16 -5 -3 -10 -1 -10 6 0 8 -4 8 -15 -1 -8 -7 -15 -18 -15 -24 0 -6 5 -4 11 4
9 13 10 13 6 0 -2 -9 -13 -14 -28 -12 -18 2 -21 1 -9 -7 12 -8 10 -14 -10 -34
-31 -31 -46 -50 -46 -57 1 -3 -24 -30 -54 -60 -30 -30 -50 -48 -45 -40 7 12 6
13 -7 3 -8 -7 -18 -10 -21 -6 -4 3 -7 1 -7 -5 0 -7 5 -12 11 -12 5 0 8 -4 4
-10 -3 -5 -12 -7 -19 -4 -9 3 -13 -2 -12 -17 0 -12 -6 -24 -14 -26 -12 -4 -12
-3 -2 5 11 7 11 10 -2 15 -9 4 -15 3 -15 -1 3 -19 -4 -32 -38 -69 -23 -24 -45
-39 -56 -37 -14 2 -15 -1 -8 -10 13 -15 4 -27 -14 -20 -8 3 -12 -3 -11 -17 0
-12 -6 -24 -14 -26 -12 -4 -12 -3 -2 5 11 8 11 10 0 15 -8 3 -15 0 -15 -7 0
-18 -34 -66 -47 -66 -7 0 -7 3 -1 8 6 4 17 16 25 27 11 16 9 15 -12 -4 -16
-14 -25 -31 -23 -43 4 -17 2 -18 -12 -6 -10 7 -14 8 -10 1 10 -16 -38 -25
-112 -21 -40 2 -62 7 -66 16 -4 11 -8 12 -19 3 -10 -9 -16 -9 -21 -1 -5 8 -10
8 -20 0 -9 -8 -14 -6 -19 5 -3 9 -10 14 -16 10 -5 -3 -25 -2 -44 3 -23 7 -38
6 -45 -1 -8 -8 -11 -8 -11 2 0 7 -4 9 -10 6 -5 -3 -10 -1 -10 6 0 7 -7 4 -16
-7 -8 -10 -13 -13 -9 -6 10 19 -4 35 -20 22 -8 -7 -15 -7 -19 -1 -4 6 -18 6
-36 1 -17 -5 -30 -5 -30 -1 0 4 -14 8 -32 9 -18 2 -36 8 -40 15 -5 9 -10 9
-18 1 -8 -8 -26 -8 -66 2 -30 7 -54 10 -54 8 0 -3 -9 0 -20 6 -11 6 -20 7 -20
2 0 -4 -9 -8 -20 -8 -11 0 -20 4 -20 9 0 5 -12 7 -26 4 -16 -3 -28 0 -31 9 -4
11 -9 12 -18 4 -9 -8 -15 -8 -20 0 -4 7 -12 7 -26 0 -15 -8 -19 -8 -17 2 2 7
-4 12 -14 10 -9 -1 -19 2 -23 7 -3 6 -15 7 -29 1 -16 -6 -28 -5 -36 3 -10 9
-11 9 -5 -2 5 -9 4 -12 -3 -7 -7 4 -12 15 -13 24 0 14 -2 13 -9 -3 -5 -11 -9
-14 -9 -7 -1 7 -5 10 -11 7 -5 -3 -10 -1 -10 6 0 8 -4 8 -13 1 -7 -6 -18 -7
-26 -2 -8 4 -20 6 -27 3 -13 -5 -31 22 -30 47 1 9 10 15 23 14 18 -1 21 2 13
17 -9 15 -6 17 17 13 22 -4 24 -3 14 10 -10 11 -8 17 10 30 12 8 27 12 32 9 6
-3 7 -1 3 5 -4 7 -2 12 4 12 6 0 8 5 4 13 -5 7 0 6 11 -3 12 -10 16 -10 11 -2
-10 17 13 44 32 37 13 -5 13 -3 1 12 -12 14 -12 16 0 8 11 -6 13 -4 8 8 -3 9
-3 16 1 15 12 -2 47 15 60 31 8 9 11 11 8 4 -4 -6 -2 -15 4 -18 6 -4 10 -3 9
2 -4 21 2 34 12 27 8 -4 9 1 4 17 -7 21 -6 22 8 11 13 -11 18 -10 29 7 8 12
18 18 23 13 4 -4 3 3 -4 15 -10 19 -9 21 10 18 15 -3 19 0 15 10 -3 8 -1 17 4
20 6 4 10 1 10 -4 0 -6 4 -11 9 -11 6 0 8 9 6 20 -2 11 1 23 7 26 6 4 8 3 5
-3 -3 -5 0 -10 8 -10 10 0 11 5 4 18 -7 15 -6 17 12 14 15 -3 19 0 15 10 -3 8
-1 17 4 20 6 4 10 1 10 -4 0 -6 5 -11 12 -11 6 0 8 3 5 7 -4 3 -1 13 6 21 10
13 9 14 -3 7 -8 -4 5 10 29 33 24 23 47 39 52 36 4 -2 6 5 4 17 -3 17 -1 19
10 9 9 -7 15 -8 20 0 3 5 1 10 -5 10 -7 0 -5 6 4 15 8 8 19 15 25 15 5 0 13 5
17 12 4 7 3 8 -4 4 -7 -4 -12 -2 -12 3 0 14 17 14 25 1 12 -19 26 0 15 20 -9
16 -7 18 11 15 15 -3 19 0 15 10 -3 8 -1 17 4 20 6 4 10 1 10 -4 0 -6 4 -11 9
-11 6 0 8 9 6 20 -2 11 1 23 7 26 6 4 8 3 5 -3 -3 -5 0 -10 8 -10 10 0 11 5 4
18 -7 15 -6 17 12 14 15 -3 19 0 15 10 -3 8 -1 17 4 20 6 4 10 1 10 -4 0 -6 5
-11 12 -11 6 0 8 3 5 7 -4 3 -1 13 6 21 10 13 9 14 -3 7 -8 -4 5 10 29 33 24
23 46 41 50 40 18 -2 22 4 11 17 -10 12 -8 14 8 10 12 -2 29 7 43 23 19 21 20
23 4 12 -11 -8 -23 -19 -27 -25 -5 -6 -8 -6 -8 1 0 14 51 50 64 46 5 -2 4 4
-3 12 -10 12 -8 14 13 12 21 -3 24 0 16 14 -8 15 -6 17 10 13 12 -3 20 0 20 6
0 7 -5 9 -12 5 -6 -4 -8 -3 -5 3 4 6 20 10 37 9 16 -1 30 2 30 7 0 5 6 4 13
-2 8 -6 16 -8 20 -5 9 9 70 11 94 2 13 -4 25 -3 29 3 4 7 10 6 19 -1 7 -6 16
-7 19 -2 6 10 59 7 78 -4 9 -5 8 -2 -2 11 -13 16 -13 18 0 13 8 -3 27 1 43 9
21 11 27 11 27 1 0 -8 4 -7 10 4 6 10 18 14 30 11 13 -3 20 0 20 8 0 11 2 11
10 -1 7 -11 10 -11 10 -2 0 7 5 10 10 7 6 -3 10 -1 10 6 0 8 4 8 15 -1 13 -10
15 -9 15 11 0 22 0 22 15 3 8 -10 15 -14 15 -7 0 6 8 12 18 12 43 2 60 6 56
12 -2 4 8 7 22 7 13 0 34 8 46 18 12 11 18 13 13 5 -6 -11 -4 -13 8 -8 8 3 32
9 51 13 20 3 34 9 32 13 -3 4 9 6 27 5 17 -1 48 5 67 15 37 18 65 17 54 -1 -4
-7 -2 -8 4 -4 7 4 12 13 12 21 0 8 9 12 25 10 17 -1 25 3 26 14 0 9 3 11 5 5
3 -6 16 -9 29 -6 14 2 23 8 20 11 -2 4 2 8 10 8 8 0 11 -5 8 -11 -4 -6 1 -5
10 3 9 7 28 11 42 9 20 -4 23 -3 14 8 -8 10 -6 12 10 9 11 -2 23 1 27 7 5 7 8
7 13 0 4 -7 12 -8 21 -2z m107 -235 c0 -8 -3 -13 -5 -10 -3 3 -15 -3 -26 -12
-15 -13 -14 -10 3 10 29 32 28 31 28 12z m-4743 -131 c3 -8 2 -12 -4 -9 -6 3
-10 10 -10 16 0 14 7 11 14 -7z m4469 -189 c-3 -9 -8 -14 -10 -11 -3 3 -2 9 2
15 9 16 15 13 8 -4z m-73 -69 c0 -2 -8 -10 -17 -17 -16 -13 -17 -12 -4 4 13
16 21 21 21 13z m-78 -93 c-6 -3 -9 -10 -6 -15 4 -7 2 -8 -5 -4 -9 6 -9 11 0
22 6 8 15 12 18 8 3 -4 0 -9 -7 -11z m-1612 -242 c0 -6 -4 -12 -8 -15 -5 -3
-9 1 -9 9 0 8 4 15 9 15 4 0 8 -4 8 -9z m-4254 -713 c4 -7 3 -8 -4 -4 -7 4
-12 2 -12 -5 0 -7 -3 -10 -6 -6 -6 5 3 27 11 27 2 0 7 -5 11 -12z m-602 -516
c3 -5 -1 -9 -9 -9 -8 0 -12 4 -9 9 3 4 7 8 9 8 2 0 6 -4 9 -8z m-108 -94 c4
-7 4 -10 -1 -6 -11 11 -36 -12 -28 -25 4 -6 1 -7 -6 -3 -9 6 -8 13 5 27 20 22
21 23 30 7z m10574 -192 c0 -3 -4 -8 -10 -11 -5 -3 -10 -1 -10 4 0 6 5 11 10
11 6 0 10 -2 10 -4z m-10936 -121 c-4 -8 -11 -15 -16 -15 -6 0 -5 6 2 15 7 8
14 15 16 15 2 0 1 -7 -2 -15z m291 -325 c17 7 25 5 29 -6 3 -8 10 -14 16 -14
6 0 8 6 4 13 -6 9 -4 9 7 1 8 -6 21 -11 29 -11 27 -1 45 -8 57 -23 11 -13 12
-12 7 4 -7 17 -5 17 25 2 20 -11 31 -13 31 -5 0 8 4 8 13 1 7 -6 32 -14 55
-18 27 -4 39 -10 35 -18 -4 -6 0 -5 9 2 13 10 17 10 22 -4 5 -13 9 -14 20 -5
8 7 17 8 20 3 3 -5 17 -8 31 -7 14 2 28 -2 32 -7 4 -7 1 -8 -7 -3 -8 5 -11 4
-7 -2 3 -5 20 -8 36 -7 18 1 31 -3 31 -9 0 -7 5 -5 10 3 7 11 10 11 10 2 0 -7
5 -10 10 -7 6 3 10 2 10 -2 0 -13 40 -11 40 2 0 5 5 3 10 -6 6 -10 23 -15 49
-15 23 1 43 -4 45 -11 3 -6 14 -9 25 -6 12 3 28 0 36 -7 11 -9 15 -9 15 -1 0
9 5 9 21 0 16 -8 23 -8 29 1 5 8 9 7 13 -5 5 -10 3 -14 -5 -9 -6 4 -8 3 -5 -3
3 -5 20 -8 38 -5 18 3 29 1 26 -4 -3 -6 10 -9 29 -9 19 1 34 -2 34 -7 0 -5 5
-6 10 -3 6 3 10 1 10 -6 0 -8 5 -7 17 2 9 8 14 9 10 3 -4 -7 3 -14 18 -17 14
-2 28 0 31 5 4 6 9 6 14 -1 4 -7 17 -13 28 -14 12 -1 22 -5 22 -10 0 -5 6 -4
14 2 10 8 16 9 21 1 3 -6 10 -8 15 -5 10 6 22 -23 14 -36 -3 -5 -13 -5 -25 1
-13 8 -19 7 -19 0 0 -8 -6 -8 -20 0 -15 8 -20 8 -20 -1 0 -8 -5 -8 -16 2 -13
10 -17 10 -25 -2 -5 -8 -9 -9 -9 -3 0 7 -7 15 -16 18 -10 4 -13 2 -8 -6 5 -8
2 -9 -9 -5 -10 4 -17 2 -17 -5 0 -7 -5 -6 -15 2 -12 10 -16 9 -20 -2 -4 -9
-19 -14 -40 -13 -19 0 -35 -2 -35 -6 0 -3 -18 -3 -40 1 -25 5 -40 4 -40 -3 0
-6 -5 -5 -13 1 -8 7 -18 7 -27 2 -8 -5 -18 -6 -23 -3 -4 3 -18 -3 -29 -14 -12
-10 -18 -13 -15 -6 7 11 -52 11 -72 -1 -5 -4 -12 -2 -15 3 -6 9 -43 4 -61 -9
-5 -4 -49 -7 -97 -6 -50 0 -88 -3 -88 -8 0 -6 -5 -5 -11 1 -13 13 -42 6 -34
-8 3 -4 -4 -6 -16 -4 -12 2 -30 0 -40 -6 -13 -7 -19 -6 -19 1 0 7 -6 8 -19 0
-13 -7 -22 -7 -26 0 -4 7 -12 7 -25 0 -13 -7 -21 -7 -25 0 -4 6 -13 7 -23 1
-11 -6 -24 -6 -35 0 -12 7 -17 6 -17 -1 0 -6 -4 -8 -10 -5 -5 3 -20 0 -32 -6
-22 -12 -22 -11 -8 7 14 19 14 19 -7 1 -23 -20 -70 -19 -66 1 2 6 -2 12 -7 12
-7 0 -7 6 -1 18 7 13 7 22 0 29 -13 13 -28 163 -17 163 5 0 4 9 -2 20 -6 11
-7 20 -3 20 5 0 7 18 5 40 -3 26 0 40 8 40 6 0 9 4 6 8 -3 5 1 9 9 9 8 0 11
-5 8 -11 -3 -6 3 -3 13 7 10 10 20 13 22 8 2 -6 12 -7 27 -1z m1490 -319 c6 8
10 7 17 -5 5 -9 13 -14 18 -11 5 3 19 1 30 -5 15 -8 20 -8 20 1 0 7 10 5 26
-6 15 -9 23 -12 20 -6 -4 6 -2 11 3 11 6 0 11 -5 11 -11 0 -5 5 -7 10 -4 6 3
10 2 10 -3 0 -5 11 -8 25 -7 14 2 27 0 30 -4 2 -4 20 -7 40 -6 19 0 35 -3 35
-8 0 -5 7 -7 15 -3 17 6 50 -37 41 -53 -4 -5 -2 -13 4 -16 8 -5 8 -11 0 -20
-7 -9 -8 -15 -1 -19 7 -4 7 -15 1 -31 -6 -16 -6 -27 1 -31 6 -4 7 -10 0 -17
-16 -20 -16 -23 -3 -40 9 -10 10 -17 2 -22 -6 -3 -7 -11 -3 -18 10 -16 10 -58
1 -63 -5 -3 -6 -10 -3 -15 5 -8 -23 -13 -62 -12 -7 1 -13 -3 -13 -8 0 -5 -5
-9 -11 -9 -5 0 -7 5 -3 11 3 6 -5 3 -20 -6 -16 -11 -26 -13 -26 -6 0 9 -5 9
-20 1 -14 -8 -20 -8 -20 0 0 8 -6 8 -20 0 -15 -8 -20 -8 -20 1 0 7 -10 5 -26
-6 -15 -9 -24 -12 -20 -7 3 6 2 13 -4 17 -5 3 -10 0 -10 -8 0 -10 -9 -14 -30
-13 -16 1 -30 -1 -30 -6 0 -12 -24 -5 -37 12 -6 9 -8 21 -3 30 5 8 4 23 -2 33
-5 10 -7 25 -4 33 3 8 -1 17 -9 21 -12 4 -13 9 -4 19 9 11 9 14 0 14 -9 0 -9
5 -1 20 8 14 8 20 0 20 -8 0 -8 6 0 20 8 14 8 20 0 20 -8 0 -8 6 0 20 8 14 8
20 0 20 -8 0 -8 6 0 20 8 14 8 20 0 20 -8 0 -8 6 0 20 8 14 8 20 0 20 -8 0 -8
6 0 20 6 11 7 20 3 20 -11 0 -9 41 1 58 6 10 11 10 21 2 10 -8 15 -8 20 1z
m2209 -480 c6 -8 72 -25 104 -26 7 0 17 -7 22 -15 6 -9 10 -10 10 -3 0 12 13
11 43 -2 9 -4 24 -4 33 -1 8 3 13 2 10 -3 -8 -12 29 -20 45 -10 8 4 18 1 27
-9 7 -9 11 -11 7 -4 -9 18 13 15 23 -4 6 -11 11 -13 16 -5 5 7 13 7 24 1 35
-18 82 -29 87 -19 4 5 11 7 16 3 5 -3 7 -9 4 -13 -2 -5 7 -6 20 -3 15 2 25 0
25 -7 0 -8 5 -9 19 -2 15 8 20 7 25 -5 5 -13 9 -14 20 -5 9 8 15 8 18 2 1 -6
17 -13 33 -15 45 -5 59 -10 67 -21 5 -6 8 -5 8 3 0 9 5 10 18 3 13 -7 22 -7
30 1 7 7 14 4 23 -10 9 -14 17 -18 24 -12 7 6 22 4 38 -5 19 -10 25 -10 20 -2
-4 7 5 4 20 -6 15 -9 27 -13 27 -7 0 6 12 2 27 -7 15 -10 24 -12 20 -6 -6 9
-3 11 7 7 9 -3 16 -10 16 -14 0 -5 8 -7 18 -6 9 2 20 -2 24 -8 5 -7 8 -3 8 9
1 20 1 20 10 -1 6 -16 16 -20 41 -18 42 4 71 -4 64 -17 -8 -12 8 -12 21 1 6 6
19 4 37 -5 15 -8 25 -10 22 -5 -4 6 -1 10 4 10 6 0 11 -5 11 -11 0 -5 5 -7 10
-4 6 3 10 1 10 -5 0 -7 6 -8 18 -1 13 7 22 7 29 0 5 -5 25 -11 44 -14 18 -2
40 -12 48 -22 13 -17 13 -17 8 0 -4 9 -2 17 3 17 6 0 10 -5 10 -11 0 -6 6 -9
14 -6 7 3 19 0 25 -6 8 -8 11 -7 11 3 0 9 5 8 16 -6 8 -10 13 -14 9 -7 -4 8 2
10 17 7 13 -3 29 -6 36 -6 6 -1 12 -5 12 -10 0 -5 11 -8 24 -6 13 1 31 -3 40
-11 11 -9 16 -10 16 -2 0 9 5 9 20 1 15 -8 20 -8 20 2 0 8 3 9 8 3 12 -16 56
-39 47 -24 -6 8 -4 10 6 4 12 -8 27 -12 67 -17 6 -1 12 -5 12 -9 0 -5 6 -6 14
-3 8 3 17 1 20 -5 4 -6 13 -8 21 -4 8 3 15 1 15 -4 0 -5 16 -8 35 -8 20 1 38
-2 41 -7 3 -5 10 -6 15 -3 5 4 9 1 9 -5 0 -7 6 -8 19 -1 14 8 22 7 30 -3 6 -7
30 -13 53 -14 24 -1 44 -6 46 -11 2 -6 10 -7 18 -4 8 3 14 0 14 -7 0 -9 3 -10
14 -1 10 9 15 8 19 -4 4 -8 12 -12 20 -9 7 2 25 0 40 -5 18 -7 28 -7 33 0 3 6
12 3 21 -8 8 -10 12 -12 8 -5 -3 6 -1 12 4 12 6 0 11 -5 11 -11 0 -5 5 -7 10
-4 6 3 10 2 10 -2 0 -5 14 -8 30 -7 17 1 30 -2 30 -6 0 -4 6 -7 13 -7 26 3
102 -16 109 -27 5 -7 8 -6 8 4 0 9 3 11 8 5 10 -14 92 -35 92 -23 0 5 8 4 19
-1 10 -6 34 -12 54 -14 20 -2 44 -10 53 -18 14 -11 16 -11 10 -1 -7 11 -4 12
12 3 11 -6 30 -11 42 -11 14 0 19 -4 14 -12 -6 -10 -4 -10 8 0 13 10 17 10 22
-3 4 -13 10 -14 26 -5 11 6 20 7 20 2 0 -5 11 -8 25 -7 14 2 25 0 25 -4 0 -4
12 -8 28 -9 64 -5 84 -9 91 -21 4 -7 12 -11 17 -10 5 1 14 0 19 -1 12 -3 18
-4 78 -14 26 -5 47 -13 47 -20 0 -6 5 -4 10 4 5 8 10 10 10 4 0 -5 14 -9 30
-8 17 1 30 -3 30 -9 0 -7 5 -5 10 3 7 12 10 12 10 1 0 -7 6 -11 15 -7 8 3 15
1 15 -5 0 -6 5 -7 11 -3 6 3 15 0 20 -7 7 -12 9 -12 9 0 0 11 5 9 22 -5 13
-12 18 -13 13 -4 -6 11 -3 10 11 -2 16 -14 23 -15 32 -6 8 8 12 8 12 1 0 -15
34 -22 53 -12 10 6 18 5 22 -1 3 -5 17 -10 31 -10 14 0 22 -4 19 -10 -4 -7 3
-7 20 0 14 5 24 6 21 1 -7 -11 22 -23 35 -15 5 3 9 1 9 -5 0 -5 9 -8 20 -6 12
2 18 0 15 -6 -4 -5 -11 -7 -16 -4 -5 4 -9 1 -9 -4 0 -6 6 -11 13 -11 7 0 13
-8 14 -17 1 -10 4 -30 7 -45 2 -15 0 -30 -5 -34 -6 -4 -6 -11 2 -20 9 -11 9
-14 -1 -14 -9 0 -9 -4 -2 -13 7 -8 7 -18 2 -27 -5 -9 -5 -19 2 -27 7 -9 7 -13
-1 -13 -8 0 -9 -5 -1 -19 7 -14 7 -22 0 -26 -8 -5 -7 -11 1 -21 9 -11 9 -14
-1 -14 -9 0 -9 -4 -2 -13 7 -8 7 -18 2 -27 -5 -9 -5 -19 2 -27 7 -9 7 -13 -2
-13 -9 0 -10 -3 -1 -13 6 -8 8 -16 5 -19 -3 -3 -7 -23 -10 -44 -3 -21 -10 -44
-16 -51 -7 -9 -7 -13 0 -13 7 0 8 -10 2 -30 -5 -18 -5 -32 1 -36 6 -4 6 -11
-2 -20 -9 -11 -9 -14 1 -14 10 0 10 -3 1 -14 -9 -10 -9 -16 -1 -21 8 -5 8 -10
0 -20 -8 -9 -8 -15 0 -20 7 -4 7 -12 0 -25 -7 -13 -7 -21 0 -25 8 -5 7 -11 -1
-21 -9 -11 -9 -14 1 -14 10 0 10 -3 1 -14 -9 -10 -9 -16 -1 -21 8 -5 8 -10 0
-20 -8 -9 -8 -15 0 -20 7 -4 7 -12 0 -25 -7 -13 -7 -21 0 -25 8 -5 7 -11 -1
-21 -9 -11 -9 -14 1 -14 10 0 10 -3 1 -14 -9 -10 -9 -16 -1 -21 8 -5 8 -10 0
-20 -7 -8 -7 -16 -2 -19 6 -3 7 -20 2 -41 -5 -24 -4 -35 4 -35 6 0 3 -6 -6
-14 -14 -10 -15 -15 -5 -26 9 -10 9 -11 -1 -6 -11 6 -13 -13 -11 -98 1 -59 -1
-110 -5 -113 -3 -3 -1 -12 5 -20 6 -7 8 -13 3 -13 -5 0 -7 -36 -4 -81 3 -44 1
-83 -3 -86 -4 -3 -3 -11 4 -19 9 -11 9 -14 0 -14 -8 0 -9 -5 -1 -19 7 -14 7
-22 0 -26 -8 -5 -7 -11 1 -21 6 -8 7 -14 2 -14 -4 0 -6 -29 -3 -64 3 -36 3
-63 1 -60 -8 8 -28 -60 -21 -71 6 -9 6 -31 0 -37 -5 -8 -6 -49 0 -53 4 -2 4
-27 0 -55 -4 -28 -3 -53 2 -56 5 -3 4 -12 -3 -20 -9 -11 -9 -14 0 -14 8 0 9
-5 1 -19 -7 -13 -7 -22 0 -26 7 -4 7 -12 0 -25 -6 -11 -6 -21 -1 -25 6 -3 6
-17 1 -34 -4 -15 -4 -34 0 -41 5 -7 4 -24 -1 -38 -5 -13 -6 -30 -1 -36 7 -10
9 -31 2 -38 -7 -9 -5 -50 2 -54 5 -3 1 -15 -9 -27 -10 -11 -12 -17 -5 -13 16
10 15 -5 -2 -39 -10 -19 -12 -35 -5 -51 4 -13 5 -24 1 -24 -4 0 -5 -27 -2 -60
3 -33 2 -60 -2 -60 -5 0 -4 -9 2 -20 6 -11 7 -20 2 -20 -4 0 -5 -27 -2 -60 3
-33 2 -60 -2 -60 -5 0 -4 -9 2 -20 6 -11 7 -20 2 -20 -4 0 -5 -27 -2 -60 3
-33 2 -60 -2 -60 -5 0 -4 -9 2 -20 6 -11 7 -20 3 -20 -4 0 -9 -17 -11 -38 -4
-61 -6 -72 -14 -72 -5 0 -4 -9 2 -20 8 -14 8 -20 0 -20 -8 0 -8 -6 0 -20 6
-11 7 -20 3 -20 -4 0 -8 -11 -8 -25 0 -14 4 -25 8 -25 4 0 3 -9 -3 -20 -8 -15
-8 -20 1 -20 9 0 9 -3 0 -14 -9 -10 -9 -16 -1 -21 8 -5 8 -10 0 -20 -7 -8 -7
-15 -1 -19 10 -7 10 -24 -2 -43 -4 -6 -3 -15 3 -18 8 -5 8 -11 0 -20 -8 -10
-8 -15 0 -20 8 -5 8 -10 0 -20 -8 -9 -8 -15 0 -20 6 -3 7 -12 3 -18 -10 -17
-11 -47 -1 -53 5 -3 4 -12 -3 -20 -9 -11 -9 -14 0 -14 9 0 9 -5 1 -20 -8 -14
-8 -20 0 -20 8 0 8 -6 0 -20 -8 -15 -8 -20 1 -20 9 0 9 -3 0 -14 -8 -10 -9
-16 -1 -21 6 -4 7 -12 0 -24 -6 -12 -5 -22 3 -30 9 -10 9 -11 -4 -6 -13 5 -15
-1 -14 -30 0 -19 -2 -35 -5 -35 -8 0 -6 -37 2 -46 9 -9 -2 -35 -12 -29 -5 3
-11 1 -15 -5 -3 -5 -11 -10 -16 -10 -6 0 -8 4 -4 9 3 5 1 12 -5 16 -5 3 -10 0
-10 -7 -1 -8 -5 -7 -14 5 -10 12 -16 15 -21 7 -5 -8 -12 -6 -25 5 -10 9 -24
15 -32 14 -24 -3 -35 1 -58 21 -18 16 -25 17 -32 8 -6 -10 -8 -10 -8 0 0 7 -4
10 -10 7 -5 -3 -10 -1 -10 5 0 6 -4 8 -10 5 -5 -3 -10 -1 -10 5 0 6 -5 8 -10
5 -6 -4 -17 -1 -25 5 -8 7 -24 10 -35 7 -11 -3 -18 -2 -15 3 8 12 -21 20 -33
8 -6 -6 -15 -3 -25 12 -10 15 -17 18 -22 10 -6 -9 -10 -9 -16 1 -4 7 -16 14
-26 14 -47 2 -105 19 -110 32 -5 12 -7 12 -14 1 -7 -11 -9 -11 -9 1 0 7 -6 11
-15 7 -8 -3 -15 -1 -15 5 0 6 -5 7 -11 3 -6 -3 -15 0 -20 7 -7 12 -9 12 -9 0
0 -11 -5 -9 -22 5 -13 12 -18 13 -13 4 6 -11 3 -10 -11 2 -16 14 -23 15 -32 6
-9 -9 -12 -9 -12 1 0 7 -4 9 -10 6 -5 -3 -10 -2 -10 4 0 5 -9 8 -20 6 -12 -2
-24 4 -30 15 -6 11 -18 17 -29 15 -11 -2 -22 3 -26 12 -4 12 -8 14 -17 5 -9
-9 -17 -7 -32 6 -11 9 -16 11 -12 4 7 -12 4 -12 -14 -2 -12 6 -24 9 -27 6 -4
-3 -12 -1 -20 5 -7 6 -22 9 -33 6 -13 -3 -25 2 -34 15 -10 14 -15 16 -19 6 -4
-9 -6 -9 -6 2 -1 11 -11 16 -33 15 -18 0 -47 8 -65 17 -17 9 -34 14 -37 11 -3
-4 -6 0 -6 8 0 11 -2 11 -10 -1 -7 -11 -10 -11 -10 -2 0 7 -4 10 -10 7 -5 -3
-10 -1 -10 5 0 6 -4 8 -10 5 -5 -3 -10 -2 -10 4 0 6 -7 8 -15 5 -8 -4 -15 -1
-15 6 0 9 -3 10 -14 1 -11 -9 -15 -8 -20 5 -5 12 -9 14 -20 5 -10 -8 -16 -8
-25 2 -6 8 -8 16 -6 19 3 3 -6 3 -21 0 -21 -4 -25 -2 -19 9 7 12 6 12 -7 1
-13 -10 -17 -10 -21 1 -3 8 -18 13 -36 12 -17 -1 -31 2 -31 7 0 5 -5 6 -10 3
-6 -4 -22 0 -35 9 -13 9 -31 16 -40 16 -8 0 -15 4 -15 10 0 5 -6 7 -14 4 -7
-3 -30 4 -50 15 -24 14 -36 17 -36 8 0 -7 -3 -8 -8 -2 -7 11 -21 15 -64 23
-15 2 -26 8 -23 12 3 5 -7 5 -23 1 -29 -9 -69 9 -54 24 4 4 -5 5 -20 3 -17 -3
-32 0 -39 9 -9 11 -15 11 -27 1 -13 -10 -14 -10 -8 -1 6 12 -11 18 -36 14 -5
0 -8 4 -8 10 0 5 -4 7 -10 4 -5 -3 -10 0 -10 7 0 9 -3 9 -10 -2 -7 -11 -10
-11 -10 -2 0 7 -4 10 -10 7 -5 -3 -10 -1 -10 6 0 7 -3 9 -7 6 -3 -4 -17 0 -29
8 -13 8 -37 17 -53 18 -17 2 -38 10 -47 18 -14 11 -16 11 -10 1 7 -11 4 -12
-12 -3 -11 6 -30 11 -42 11 -14 0 -19 4 -14 13 5 8 2 8 -9 -2 -17 -13 -18 -13
-21 12 -1 6 -11 11 -23 9 -12 -2 -24 2 -28 8 -3 6 -11 8 -16 4 -5 -3 -17 0
-26 8 -12 9 -15 9 -9 1 11 -19 -5 -16 -21 5 -8 10 -11 11 -7 2 7 -13 5 -13 -9
-1 -9 7 -17 10 -17 6 0 -4 -7 -2 -15 5 -8 7 -15 9 -15 5 0 -5 -10 0 -22 11
-12 10 -18 13 -14 7 4 -7 2 -13 -4 -13 -6 0 -13 7 -16 15 -5 11 -10 13 -19 5
-10 -8 -15 -8 -21 1 -5 8 -3 9 6 4 8 -5 11 -4 6 3 -3 6 -15 9 -26 7 -11 -2
-20 0 -20 5 0 4 -7 11 -16 14 -8 3 -12 2 -9 -4 3 -6 1 -10 -4 -10 -6 0 -11 5
-11 11 0 5 -4 7 -10 4 -5 -3 -10 0 -11 7 0 9 -2 9 -5 1 -4 -8 -12 -8 -31 2
-15 8 -30 12 -35 9 -4 -3 -8 -1 -8 4 0 5 -13 8 -30 7 -21 -1 -30 3 -30 14 0
14 -2 14 -10 1 -9 -13 -10 -13 -11 0 -1 8 -1 18 -1 21 1 4 -17 4 -40 2 -28 -4
-38 -2 -34 6 5 7 1 8 -10 4 -10 -3 -22 0 -28 8 -6 8 -15 14 -21 14 -35 2 -105
19 -105 25 0 4 -7 10 -14 13 -11 4 -13 1 -10 -11 5 -15 4 -15 -6 1 -6 9 -15
15 -21 12 -5 -4 -9 -2 -9 3 0 6 -7 13 -16 16 -8 3 -12 2 -9 -4 3 -6 1 -10 -4
-10 -6 0 -11 5 -11 11 0 5 -4 8 -9 5 -5 -3 -11 0 -14 8 -3 8 -16 12 -31 11
-14 -2 -26 0 -26 5 0 4 -7 11 -16 14 -8 3 -12 2 -9 -4 10 -16 -11 -12 -25 5
-7 8 -16 12 -21 9 -5 -3 -9 0 -9 5 0 6 -4 11 -10 11 -5 0 -7 -8 -3 -17 5 -16
4 -16 -9 1 -9 12 -29 19 -55 20 -23 1 -47 9 -57 19 -19 19 -31 23 -21 7 3 -6
-1 -7 -9 -4 -9 3 -16 10 -16 16 0 5 -4 7 -9 3 -6 -3 -15 3 -21 12 -11 17 -11
17 -6 0 5 -15 3 -16 -17 -5 -25 14 -29 15 -58 17 -12 0 -17 5 -13 12 4 8 1 8
-12 1 -23 -11 -47 -5 -38 10 5 7 2 8 -5 4 -7 -5 -18 0 -26 10 -9 12 -14 14
-15 6 0 -8 -5 -10 -12 -5 -7 4 -22 9 -32 10 -11 2 -32 10 -48 17 -15 8 -30 10
-33 6 -3 -5 -12 -7 -21 -3 -12 5 -12 8 3 20 10 8 12 11 4 7 -11 -5 -13 -3 -8
9 4 10 1 17 -6 18 -9 0 -9 2 0 5 8 4 9 13 3 28 -4 13 -4 29 1 39 7 11 6 17 -1
17 -8 0 -8 6 0 20 8 14 8 20 0 20 -8 0 -8 6 0 20 8 15 8 20 -1 20 -9 0 -9 3 0
14 7 9 8 17 2 20 -10 7 -10 24 2 43 4 6 3 15 -3 18 -8 5 -8 11 0 20 8 9 8 15
0 20 -6 3 -8 10 -5 15 3 5 1 11 -3 14 -5 3 -10 63 -11 133 -1 70 -5 131 -7
135 -3 4 0 8 6 8 8 0 8 6 0 20 -6 11 -7 20 -2 20 5 0 6 18 2 40 -4 22 -3 40 2
40 5 0 4 9 -2 20 -6 11 -7 20 -2 20 5 0 6 18 2 40 -4 22 -3 40 2 40 5 0 4 9
-2 20 -6 11 -7 20 -2 20 5 0 6 18 2 40 -4 22 -3 40 2 40 5 0 4 9 -2 20 -6 11
-7 20 -2 20 5 0 6 18 2 40 -4 22 -3 40 2 40 5 0 4 9 -2 20 -6 11 -7 20 -3 20
4 0 7 47 5 105 -2 78 -6 104 -15 98 -7 -4 -6 0 2 10 11 14 11 18 -3 23 -12 5
-14 10 -6 19 8 10 8 15 0 20 -8 5 -8 11 1 21 9 11 9 14 0 14 -8 0 -9 5 -1 19
6 12 6 22 1 25 -8 5 -8 27 -1 46 6 15 4 36 -4 48 -5 8 -4 12 4 12 8 0 9 4 3
13 -8 10 -10 32 -3 40 6 7 6 49 -1 53 -4 2 -4 17 1 33 4 15 4 34 0 41 -5 7 -4
24 1 38 5 13 6 30 1 36 -7 10 -9 31 -2 39 6 7 6 49 -1 53 -4 2 -4 17 1 33 4
15 4 34 0 41 -5 7 -4 24 1 37 5 14 5 23 -1 23 -6 0 -6 9 0 25 6 16 6 26 -1 31
-6 3 -9 15 -6 25 3 11 1 17 -3 14 -5 -3 -10 25 -12 61 -1 36 1 68 5 71 4 3 3
11 -4 19 -6 8 -7 14 -2 14 5 0 9 10 9 23 -1 13 5 22 14 22 8 0 20 7 25 15 6 8
17 15 25 15 8 0 14 6 12 13 -2 10 2 10 20 1 21 -11 22 -11 9 5 -8 9 -11 19 -7
23 3 3 6 2 6 -4 0 -5 7 -10 15 -10 8 0 15 4 15 9 0 5 5 6 10 3 6 -4 17 -1 25
5 8 7 21 10 30 6 8 -3 14 0 12 6 -1 6 9 14 23 18 14 4 24 13 22 20 -3 11 0 11
12 0 9 -7 16 -8 16 -2 0 5 8 12 18 14 18 5 48 78 31 78 -5 0 -5 10 0 23 5 13
6 30 1 37 -5 7 -4 24 1 38 5 13 6 29 2 35 -11 17 -11 30 -1 44 5 6 5 14 -2 18
-6 3 -7 12 -3 18 10 16 10 39 0 53 -4 6 -3 23 2 37 7 17 7 28 0 32 -5 4 -8 14
-7 23 2 10 -3 16 -10 14 -10 -2 -10 2 -3 17 6 10 7 21 4 25 -8 8 -8 85 1 93 3
3 1 12 -5 20 -6 7 -8 13 -3 13 5 0 7 45 4 101 -3 56 -1 103 3 106 4 3 3 11 -4
19 -6 8 -7 14 -2 14 6 0 8 15 3 39 -4 25 -3 44 3 50 8 8 7 11 -2 11 -7 0 -9 5
-4 13 10 17 13 37 4 37 -4 0 -8 7 -8 15 0 8 4 12 8 10 4 -3 18 -1 31 4 30 13
36 13 42 2z m4905 -338 c-5 -14 -6 -31 -1 -37 7 -10 9 -31 2 -38 -6 -8 -6 -49
0 -53 4 -2 4 -25 0 -50 -4 -25 -4 -45 1 -45 4 0 3 -15 -1 -34 -5 -22 -3 -39 3
-45 8 -8 7 -11 -2 -11 -8 0 -10 -7 -6 -21 5 -16 4 -19 -6 -14 -8 6 -11 4 -7
-7 4 -8 2 -21 -2 -28 -5 -7 -4 -24 1 -37 5 -12 5 -23 1 -23 -4 0 -5 -36 -2
-81 3 -44 1 -83 -3 -86 -4 -3 -3 -11 4 -19 9 -11 9 -14 -1 -14 -9 0 -9 -4 -2
-13 6 -7 7 -18 3 -25 -4 -7 -7 -26 -6 -42 1 -17 -2 -27 -8 -23 -5 3 -7 0 -5
-8 3 -8 1 -22 -3 -31 -6 -10 -5 -19 1 -23 8 -5 7 -11 -1 -21 -9 -11 -9 -14 1
-14 10 0 10 -3 1 -14 -8 -10 -9 -16 -1 -21 7 -4 7 -12 0 -25 -7 -13 -7 -21 0
-25 8 -5 8 -11 0 -20 -8 -10 -8 -15 0 -20 8 -5 8 -11 -1 -21 -9 -11 -9 -14 1
-14 10 0 10 -3 1 -14 -8 -10 -9 -16 -1 -21 7 -4 7 -12 0 -25 -7 -13 -7 -21 0
-25 8 -5 8 -11 0 -20 -8 -10 -8 -15 0 -20 8 -5 8 -11 -1 -21 -7 -9 -8 -14 -1
-14 6 0 5 -18 -4 -47 -8 -26 -12 -53 -10 -60 3 -7 1 -13 -5 -13 -6 0 -6 -7 1
-19 7 -14 7 -22 0 -26 -8 -5 -7 -11 1 -21 6 -8 7 -14 2 -14 -7 0 -7 -15 -3
-40 4 -23 3 -43 -2 -46 -5 -3 -4 -12 3 -20 6 -8 8 -14 3 -14 -5 0 -7 -43 -4
-95 3 -52 1 -95 -4 -95 -4 0 -6 -9 -3 -20 3 -11 1 -20 -5 -20 -6 0 -8 -9 -5
-20 3 -11 2 -20 -1 -20 -9 0 -7 -58 1 -66 3 -3 2 -16 -3 -28 -4 -13 -5 -29 0
-36 5 -7 4 -24 -1 -38 -5 -13 -6 -30 -1 -36 7 -10 9 -31 2 -38 -7 -10 -6 -38
1 -38 6 0 6 -8 -1 -19 -7 -14 -7 -22 0 -26 8 -5 8 -11 0 -20 -8 -10 -8 -15 0
-20 8 -5 6 -15 -5 -32 -10 -14 -12 -22 -6 -19 6 4 11 2 11 -3 0 -6 -4 -11 -9
-11 -5 0 -10 -80 -11 -186 -1 -206 -1 -206 -15 -216 -6 -5 -4 -8 4 -8 11 0 9
-4 -5 -15 -12 -9 -14 -14 -6 -15 8 0 10 -5 6 -12 -11 -18 -12 -48 -2 -54 5 -3
4 -12 -2 -19 -8 -10 -8 -15 0 -20 8 -5 8 -11 -1 -21 -9 -11 -9 -14 0 -14 9 0
9 -5 1 -20 -8 -14 -8 -20 0 -20 8 0 8 -6 0 -20 -8 -15 -8 -20 2 -20 9 0 9 -3
0 -12 -8 -8 -9 -15 -1 -25 9 -9 8 -13 0 -13 -8 0 -9 -5 -1 -19 7 -13 7 -22 0
-26 -7 -4 -7 -13 0 -25 9 -17 8 -19 -7 -13 -16 6 -17 5 -3 -12 10 -13 11 -16
2 -11 -11 6 -13 -2 -11 -38 2 -25 0 -48 -4 -52 -4 -4 -2 -13 4 -21 7 -8 7 -13
2 -13 -7 0 -7 -15 -3 -40 4 -23 3 -43 -2 -46 -5 -3 -4 -12 3 -20 6 -8 8 -14 3
-14 -5 0 -8 -52 -7 -115 2 -101 0 -115 -15 -115 -11 0 -13 -3 -6 -10 7 -7 8
-29 4 -55 -4 -25 -4 -45 0 -45 4 0 4 -18 0 -40 -4 -22 -4 -40 1 -40 5 0 5 -10
0 -22 -4 -13 -6 -29 -3 -37 3 -10 0 -11 -9 -5 -11 6 -12 5 -2 -8 16 -19 5 -32
-14 -16 -11 9 -13 8 -11 -3 2 -8 -3 -13 -10 -11 -8 1 -11 -2 -7 -8 3 -5 1 -10
-5 -10 -6 0 -8 -5 -4 -12 6 -9 3 -9 -9 0 -14 12 -16 11 -12 -7 3 -18 1 -20
-15 -11 -16 8 -18 8 -14 -5 5 -13 -5 -19 -28 -16 -3 0 -5 -7 -4 -17 3 -18 -58
-46 -82 -37 -9 3 -10 0 -2 -15 8 -16 8 -18 -4 -14 -8 3 -21 -5 -30 -18 -9 -13
-20 -22 -24 -21 -4 2 -7 -5 -7 -14 0 -10 -9 -19 -20 -21 -25 -5 -56 -37 -47
-48 4 -5 -2 -2 -12 6 -13 10 -17 10 -12 3 4 -8 2 -13 -7 -13 -8 0 -18 -7 -21
-16 -3 -9 -11 -12 -18 -8 -10 6 -10 5 0 -8 14 -18 3 -31 -35 -42 -13 -4 -23
-12 -23 -17 0 -6 -4 -8 -9 -4 -5 3 -13 0 -16 -6 -4 -5 -14 -8 -22 -4 -13 4
-13 3 -4 -8 9 -12 6 -14 -14 -12 -14 2 -23 -1 -19 -6 3 -5 11 -6 17 -2 7 4 6
-1 -2 -10 -11 -14 -17 -15 -30 -5 -9 7 -13 9 -9 4 6 -8 1 -16 -29 -50 -7 -8
-9 -17 -5 -22 4 -5 -1 -2 -11 6 -16 11 -18 11 -15 -1 2 -8 -3 -13 -11 -11 -11
2 -12 0 -3 -11 16 -19 3 -30 -16 -14 -13 9 -14 9 -8 -1 4 -7 2 -12 -4 -12 -6
0 -8 -5 -4 -11 4 -7 -1 -7 -16 1 -20 11 -21 10 -9 -12 6 -13 8 -20 4 -16 -4 4
-14 0 -22 -10 -12 -16 -13 -16 -6 2 4 13 3 17 -5 12 -7 -4 -12 -13 -12 -20 0
-8 -7 -19 -15 -26 -8 -7 -12 -16 -9 -21 3 -5 -6 -5 -20 1 -19 7 -24 6 -20 -4
3 -8 -3 -12 -18 -10 -13 1 -27 3 -31 3 -4 1 -3 10 3 20 7 14 7 22 -1 27 -8 4
-7 9 2 15 10 6 10 9 2 9 -9 0 -10 7 -4 23 5 13 5 30 1 37 -5 8 -5 19 1 26 7 8
6 14 -1 19 -7 4 -7 12 0 25 6 12 7 21 0 25 -5 3 -6 15 0 29 4 12 4 29 0 36 -5
8 -5 21 0 30 6 11 5 21 -2 28 -9 9 -9 12 1 12 7 0 11 6 8 15 -4 8 0 26 8 41 9
18 11 34 4 50 -4 13 -5 24 -1 24 4 0 5 45 2 100 -3 55 -1 100 3 100 4 0 3 9
-3 20 -6 11 -7 20 -2 20 5 0 6 18 2 40 -4 23 -3 43 2 46 5 3 4 12 -3 20 -9 11
-9 14 1 14 9 0 9 4 2 13 -7 8 -7 18 -2 27 5 9 5 19 -2 27 -7 9 -7 13 1 13 9 0
9 5 1 20 -8 16 -8 20 4 20 8 0 18 5 22 12 4 6 3 8 -4 4 -6 -3 -13 -2 -17 4 -3
5 -1 10 5 10 7 0 10 7 6 15 -3 8 -1 15 5 15 6 0 6 7 -1 20 -8 15 -8 20 2 20 9
0 9 3 0 12 -7 7 -8 17 -2 29 7 12 6 20 0 24 -8 5 -7 11 1 21 9 11 9 14 -1 14
-10 0 -10 3 -1 14 9 10 9 16 1 21 -8 5 -8 10 0 20 8 9 8 15 0 20 -7 4 -7 12 0
25 7 13 7 21 0 25 -8 5 -7 11 1 21 9 11 9 14 -1 14 -10 0 -10 3 -1 14 9 10 9
16 1 21 -8 5 -8 11 -1 19 6 7 8 16 4 20 -10 10 -11 46 -1 46 5 0 4 9 -2 20 -6
11 -7 20 -1 20 5 0 6 14 1 35 -6 25 -4 39 5 49 11 10 11 16 2 26 -8 9 -8 11
-1 7 14 -8 25 71 11 80 -4 2 -3 10 2 17 6 7 8 16 4 20 -10 10 -11 46 -1 52 5
3 4 12 -3 20 -9 11 -9 14 0 14 8 0 9 5 1 19 -7 14 -7 22 0 26 8 5 7 11 -1 21
-6 8 -8 14 -3 14 5 0 7 36 4 81 -3 44 -1 83 3 86 4 3 3 11 -4 19 -6 8 -8 14
-3 14 5 0 8 31 7 70 -1 38 3 70 8 70 5 0 9 5 9 11 0 5 -6 7 -12 3 -7 -4 -5 2
5 13 13 14 15 23 7 28 -8 5 -8 11 1 21 9 11 9 14 0 14 -8 0 -9 5 -1 19 7 13 7
22 0 26 -7 4 -7 12 0 25 6 11 6 21 1 25 -6 3 -6 17 -1 34 4 15 4 34 0 41 -5 7
-4 24 1 38 5 13 6 30 1 36 -7 10 -8 28 -2 41 3 6 3 43 0 50 -2 6 -3 64 0 68 7
9 5 49 -2 53 -5 3 -6 14 -3 24 10 33 17 65 18 88 1 12 4 22 8 22 4 0 4 14 -1
30 -5 17 -5 30 -1 30 4 0 4 27 1 60 -3 33 -2 60 2 60 5 0 4 9 -2 20 -6 11 -7
20 -2 20 4 0 5 27 2 60 -3 33 -2 60 2 60 5 0 4 9 -2 20 -6 11 -7 20 -2 20 4 0
5 27 2 60 -5 48 -3 60 8 60 12 0 12 3 1 17 -12 15 -12 16 3 10 15 -5 16 -2 8
18 -6 16 -6 25 1 25 6 0 6 7 -1 20 -8 14 -8 20 0 20 8 0 8 6 0 20 -6 11 -7 20
-3 20 4 0 8 11 8 25 0 14 -4 25 -9 25 -5 0 -3 6 3 14 8 10 9 16 1 21 -7 4 -7
12 0 25 7 13 7 21 0 25 -8 5 -8 11 0 20 8 10 8 15 0 20 -8 5 -8 11 1 21 9 11
9 14 0 14 -9 0 -9 5 -1 20 6 11 7 20 3 20 -4 0 -8 11 -8 25 0 14 4 25 8 25 4
0 4 8 0 18 -14 28 -7 70 13 89 11 10 14 14 7 9 -8 -5 -13 -4 -13 2 0 12 29 24
41 16 5 -3 8 0 7 8 -2 8 8 14 25 16 20 3 27 8 23 18 -4 12 -2 12 14 4 15 -8
18 -8 14 3 -3 8 2 17 11 21 9 3 13 2 10 -4 -3 -6 -2 -10 3 -10 6 0 13 7 16 16
4 9 13 14 22 10 9 -3 12 -2 9 5 -4 6 2 13 14 16 12 3 21 10 21 15 0 6 7 8 15
4 9 -3 15 0 15 9 0 18 5 18 33 3 20 -10 21 -10 8 5 -12 15 -11 17 3 17 9 0 19
7 23 16 5 13 7 13 14 2 7 -10 9 -8 9 6 0 11 3 17 6 13 9 -9 66 22 59 33 -3 5
0 12 6 16 7 4 9 3 6 -3 -4 -6 0 -14 9 -17 8 -3 12 -2 9 4 -3 6 1 10 9 10 9 0
16 5 16 11 0 5 5 7 10 4 6 -3 10 -1 10 6 0 7 3 9 7 5 4 -3 22 8 41 26 19 18
32 28 28 21 -3 -6 -2 -14 4 -18 5 -3 10 -1 10 5 0 6 6 18 14 25 10 11 16 11
26 2 10 -9 11 -9 6 1 -4 6 -2 12 4 12 6 0 8 5 4 13 -5 8 -2 7 9 -2 16 -12 17
-12 10 5 -6 16 -5 17 9 6 13 -10 18 -10 24 -1 4 8 3 9 -4 5 -7 -4 -12 -2 -12
3 0 6 11 11 25 11 16 0 25 6 25 16 0 9 5 14 12 12 11 -4 18 1 70 46 17 16 20
16 15 3 -3 -9 -2 -19 4 -22 5 -4 9 -3 8 2 -1 4 1 16 6 26 5 13 11 15 20 7 9
-8 15 -6 20 7 6 16 8 16 25 -5 15 -18 17 -29 9 -49z m-4201 -3588 c-3 -3 -9 2
-12 12 -6 14 -5 15 5 6 7 -7 10 -15 7 -18z m-1153 -113 c-3 -3 -11 0 -18 7 -9
10 -8 11 6 5 10 -3 15 -9 12 -12z m4890 -491 c3 -5 2 -12 -3 -15 -5 -3 -9 1
-9 9 0 17 3 19 12 6z"/>
<path d="M7959 9684 c-13 -14 -17 -23 -9 -19 13 5 46 45 37 45 -2 0 -14 -11
-28 -26z"/>
<path d="M7920 9641 c0 -7 -5 -9 -12 -5 -7 5 -8 3 -3 -5 5 -9 10 -10 18 -2 6
6 8 14 4 18 -4 3 -7 1 -7 -6z"/>
<path d="M7739 9423 c-13 -16 -12 -17 4 -4 9 7 17 15 17 17 0 8 -8 3 -21 -13z"/>
<path d="M6365 9372 c-5 -4 -17 -16 -25 -27 -11 -15 -7 -14 13 4 24 22 32 31
25 31 -2 0 -7 -4 -13 -8z"/>
<path d="M6045 9052 c-5 -4 -17 -16 -25 -27 -11 -15 -7 -14 13 4 24 22 32 31
25 31 -2 0 -7 -4 -13 -8z"/>
<path d="M7124 8772 c3 -5 0 -13 -6 -15 -9 -4 -10 -6 -1 -6 17 -1 25 16 12 25
-7 4 -9 3 -5 -4z"/>
<path d="M7069 8714 c-23 -25 -23 -26 -2 -13 13 7 25 19 27 26 8 19 2 16 -25
-13z"/>
<path d="M5585 8620 c-3 -6 1 -7 9 -4 18 7 21 14 7 14 -6 0 -13 -4 -16 -10z"/>
<path d="M6919 8564 c-13 -14 -17 -23 -9 -19 13 5 46 45 37 45 -2 0 -14 -11
-28 -26z"/>
<path d="M5250 5910 c0 -5 5 -10 11 -10 5 0 7 5 4 10 -3 6 -8 10 -11 10 -2 0
-4 -4 -4 -10z"/>
<path d="M7040 1601 c0 -6 4 -13 10 -16 6 -3 7 1 4 9 -7 18 -14 21 -14 7z"/>
<path d="M8918 1763 c7 -3 16 -2 19 1 4 3 -2 6 -13 5 -11 0 -14 -3 -6 -6z"/>
<path d="M8785 1650 c-3 -6 1 -7 9 -4 18 7 21 14 7 14 -6 0 -13 -4 -16 -10z"/>
<path d="M8426 1358 c3 -5 10 -6 15 -3 13 9 11 12 -6 12 -8 0 -12 -4 -9 -9z"/>
<path d="M3746 10004 c-23 -23 -20 -30 4 -9 11 10 20 20 20 22 0 7 -9 2 -24
-13z"/>
<path d="M3597 9883 c-4 -3 -7 -11 -7 -17 0 -6 5 -5 12 2 6 6 9 14 7 17 -3 3
-9 2 -12 -2z"/>
<path d="M1905 8430 c-3 -6 1 -7 9 -4 18 7 21 14 7 14 -6 0 -13 -4 -16 -10z"/>
<path d="M1600 8169 c0 -5 5 -7 10 -4 6 3 10 8 10 11 0 2 -4 4 -10 4 -5 0 -10
-5 -10 -11z"/>
<path d="M1443 8043 c0 -9 4 -10 14 -2 7 6 13 12 13 14 0 1 -6 2 -13 2 -8 0
-14 -6 -14 -14z"/>
<path d="M11034 3304 c-18 -14 -18 -15 4 -4 12 6 22 13 22 15 0 8 -5 6 -26
-11z"/>
<path d="M10399 2753 l-24 -28 28 24 c15 14 27 26 27 28 0 8 -8 1 -31 -24z"/>
<path d="M9931 2367 c-8 -10 -7 -14 2 -14 8 0 14 6 14 14 0 7 -1 13 -2 13 -2
0 -8 -6 -14 -13z"/>
<path d="M3950 2316 c0 -2 7 -7 16 -10 8 -3 12 -2 9 4 -6 10 -25 14 -25 6z"/>
<path d="M9355 1889 c-4 -6 -4 -13 -1 -16 3 -4 6 -1 6 6 0 7 5 9 12 5 7 -4 8
-3 4 4 -9 15 -13 15 -21 1z"/>
<path d="M4186 1633 c-6 -14 -5 -15 5 -6 7 7 10 15 7 18 -3 3 -9 -2 -12 -12z"/>
<path d="M8841 1491 c-8 -5 -9 -11 -3 -15 5 -3 12 1 16 9 6 17 6 18 -13 6z"/>
<path d="M8590 1265 c-9 -10 -9 -15 -1 -15 6 0 11 5 11 11 0 5 5 7 12 3 7 -4
8 -3 4 4 -9 15 -11 15 -26 -3z"/>
</g>
</svg>
